<svg t="1644894504097" class="icon" viewBox="0 0 1024 1024" version="1.1" xmlns="http://www.w3.org/2000/svg" p-id="4561" width="200" height="200"><path d="M219.428571 694.857143h270.628572v73.142857H219.428571v-73.142857z" p-id="4562"></path><path d="M453.485714 256H256c-21.942857 0-36.571429 14.628571-36.571429 36.571429v292.571428c0 21.942857 14.628571 36.571429 36.571429 36.571429h197.485714c21.942857 0 36.571429-14.628571 36.571429-36.571429V292.571429c0-21.942857-14.628571-36.571429-36.571429-36.571429z m-21.942857 307.2H277.942857V314.514286h153.6v248.685714z" p-id="4563"></path><path d="M563.2 694.857143h270.628571v73.142857h-270.628571v-73.142857z" p-id="4564"></path><path d="M797.257143 256h-197.485714c-21.942857 0-36.571429 14.628571-36.571429 36.571429v292.571428c0 21.942857 14.628571 36.571429 36.571429 36.571429h197.485714c21.942857 0 36.571429-14.628571 36.571428-36.571429V292.571429c0-21.942857-18.285714-36.571429-36.571428-36.571429z m-21.942857 307.2H621.714286V314.514286h153.6v248.685714z" p-id="4565"></path></svg>