<svg t="1653535630247" class="icon" viewBox="0 0 1024 1024" version="1.1" xmlns="http://www.w3.org/2000/svg" p-id="4842" width="200" height="200"><path d="M119.466667 307.2a51.2 51.2 0 1 1 0-102.4h785.066666a51.2 51.2 0 0 1 0 102.4h-785.066666zM68.266667 512a51.2 51.2 0 0 0 51.2 51.2h785.066666a51.2 51.2 0 0 0 0-102.4h-785.066666A51.2 51.2 0 0 0 68.266667 512zM68.266667 768A51.2 51.2 0 0 0 119.466667 819.2h785.066666a51.2 51.2 0 0 0 0-102.4h-785.066666A51.2 51.2 0 0 0 68.266667 768z" p-id="4843"></path></svg>