<svg t="1657004736836" class="icon" viewBox="0 0 1024 1024" version="1.1" xmlns="http://www.w3.org/2000/svg" p-id="8358" width="200" height="200"><path d="M514.304 30.208H510.72c-164.8 0-315.904 119.552-330.56 277.888-0.96 11.328-1.6 22.912-2.048 35.328l-0.64 29.184-0.064 26.112 0.704-2.944a188.288 188.288 0 0 1-45.44 89.024l-3.2 4.224a199.552 199.552 0 0 0-32.64 99.968l-0.128 11.648a199.104 199.104 0 0 0 45.312 130.112c40.96 43.264 94.08 69.12 150.976 74.56 145.6 15.808 292.928 15.808 438.976 0a234.752 234.752 0 0 0 148.992-72.768c29.632-35.456 45.824-78.08 47.232-122.112V590.72a196.352 196.352 0 0 0-32.832-101.44l-3.008-3.904-7.36-8.64a192.064 192.064 0 0 1-35.584-70.016l-2.176-9.152-0.448-9.6a538.624 538.624 0 0 1-0.192-15.104v-32.896a386.368 386.368 0 0 0-1.344-31.68C830.08 149.76 678.976 30.208 514.304 30.208zM510.72 106.56h3.456c128.64 0 246.016 92.8 257.28 210.752 0.64 7.68 0.96 15.104 1.088 26.112l0.128 43.136c0.128 6.912 0.384 12.608 0.832 19.072l0.64 4.48 3.072 13.12c9.216 34.816 25.664 67.2 48.32 95.232l6.592 7.68-0.704-1.152c12.544 18.752 19.712 40.576 20.736 63.104v7.744c0.704 31.36-9.664 61.056-29.312 84.608-25.92 27.456-62.976 45.44-102.848 49.152-138.24 14.976-277.248 14.976-414.976 0a166.208 166.208 0 0 1-104.832-50.752A126.72 126.72 0 0 1 172.8 596.992v-10.432l0.832-9.088a127.36 127.36 0 0 1 14.976-44.8l3.968-6.592c29.248-32.896 49.344-72.96 58.24-116.096l0.64-6.784 0.32-43.84 0.768-22.208c0.32-7.04 0.768-13.696 1.344-20.16 10.88-117.632 128.128-210.432 256.832-210.432zM192.64 526.08a258.624 258.624 0 0 1-2.176 2.368l2.368-2.688-0.192 0.32z m448.832 354.752a33.408 33.408 0 0 0-47.36 5.12c-5.12 6.4-10.944 12.16-17.472 17.024-22.08 17.344-49.664 25.088-77.12 21.76a103.552 103.552 0 0 1-69.12-38.592 33.408 33.408 0 0 0-47.36-5.44 34.432 34.432 0 0 0-5.376 48 170.752 170.752 0 0 0 239.744 28.608c10.624-7.936 20.544-17.664 29.184-28.544a34.432 34.432 0 0 0-5.12-48z" p-id="8359"></path></svg><svg t="1657004736836" class="icon" viewBox="0 0 1024 1024" version="1.1" xmlns="http://www.w3.org/2000/svg" p-id="8358" width="200" height="200"><path d="M514.304 30.208H510.72c-164.8 0-315.904 119.552-330.56 277.888-0.96 11.328-1.6 22.912-2.048 35.328l-0.64 29.184-0.064 26.112 0.704-2.944a188.288 188.288 0 0 1-45.44 89.024l-3.2 4.224a199.552 199.552 0 0 0-32.64 99.968l-0.128 11.648a199.104 199.104 0 0 0 45.312 130.112c40.96 43.264 94.08 69.12 150.976 74.56 145.6 15.808 292.928 15.808 438.976 0a234.752 234.752 0 0 0 148.992-72.768c29.632-35.456 45.824-78.08 47.232-122.112V590.72a196.352 196.352 0 0 0-32.832-101.44l-3.008-3.904-7.36-8.64a192.064 192.064 0 0 1-35.584-70.016l-2.176-9.152-0.448-9.6a538.624 538.624 0 0 1-0.192-15.104v-32.896a386.368 386.368 0 0 0-1.344-31.68C830.08 149.76 678.976 30.208 514.304 30.208zM510.72 106.56h3.456c128.64 0 246.016 92.8 257.28 210.752 0.64 7.68 0.96 15.104 1.088 26.112l0.128 43.136c0.128 6.912 0.384 12.608 0.832 19.072l0.64 4.48 3.072 13.12c9.216 34.816 25.664 67.2 48.32 95.232l6.592 7.68-0.704-1.152c12.544 18.752 19.712 40.576 20.736 63.104v7.744c0.704 31.36-9.664 61.056-29.312 84.608-25.92 27.456-62.976 45.44-102.848 49.152-138.24 14.976-277.248 14.976-414.976 0a166.208 166.208 0 0 1-104.832-50.752A126.72 126.72 0 0 1 172.8 596.992v-10.432l0.832-9.088a127.36 127.36 0 0 1 14.976-44.8l3.968-6.592c29.248-32.896 49.344-72.96 58.24-116.096l0.64-6.784 0.32-43.84 0.768-22.208c0.32-7.04 0.768-13.696 1.344-20.16 10.88-117.632 128.128-210.432 256.832-210.432zM192.64 526.08a258.624 258.624 0 0 1-2.176 2.368l2.368-2.688-0.192 0.32z m448.832 354.752a33.408 33.408 0 0 0-47.36 5.12c-5.12 6.4-10.944 12.16-17.472 17.024-22.08 17.344-49.664 25.088-77.12 21.76a103.552 103.552 0 0 1-69.12-38.592 33.408 33.408 0 0 0-47.36-5.44 34.432 34.432 0 0 0-5.376 48 170.752 170.752 0 0 0 239.744 28.608c10.624-7.936 20.544-17.664 29.184-28.544a34.432 34.432 0 0 0-5.12-48z" p-id="8359"></path></svg>