<svg t="1657613596771" class="icon" viewBox="0 0 1024 1024" version="1.1" xmlns="http://www.w3.org/2000/svg" p-id="4576" width="200" height="200"><path d="M221.75744 827.904c64.768 58.04544 138.24 93.75744 220.544 107.19744 82.23744 13.37856 162.816 3.328 241.72544-30.208 78.976-35.712 141.312-88.50944 187.07456-158.464 45.75744-70.016 68.992-148.15744 69.76-234.496h-71.424c-0.768 75.20256-21.44256 142.53056-62.01856 202.05056-40.50944 59.52-95.80544 103.04-165.76 130.56-70.016 26.88-140.16 32-210.56 15.67744-70.4-16.31744-131.2-52.096-182.528-107.136h103.808a34.85696 34.85696 0 0 0 25.728-10.04544 34.08896 34.08896 0 0 0 9.984-25.088c0-10.04544-3.328-18.432-9.984-25.15456a39.04512 39.04512 0 0 0-25.728-11.136h-166.4a37.79584 37.79584 0 0 0-24.576 11.136 37.77536 37.77536 0 0 0-11.19744 24.576V883.712a38.77888 38.77888 0 0 0 11.19744 25.66144 34.11456 34.11456 0 0 0 25.15456 10.05056 34.2016 34.2016 0 0 0 32.96768-21.91872 34.1504 34.1504 0 0 0 2.23232-13.79328v-55.86944 0.06144zM775.61344 270.91456h-103.87456c-10.42944 0-18.944 3.328-25.66144 10.04544a34.03776 34.03776 0 0 0-10.05056 25.088 34.03776 34.03776 0 0 0 10.05056 25.088 39.03488 39.03488 0 0 0 25.66144 11.20256h166.4a37.75488 37.75488 0 0 0 24.576-11.20256 37.77536 37.77536 0 0 0 11.20256-24.576V140.288a38.79424 38.79424 0 0 0-11.20256-25.728 34.16064 34.16064 0 0 0-25.088-9.984 34.18624 34.18624 0 0 0-35.2 35.712v55.808c-64.768-58.04544-138.24-93.75744-220.544-107.136-82.23744-13.44-163.2-3.328-242.87744 30.08-78.91456 35.77856-141.056 88.576-186.496 158.592-45.44 69.95456-68.48 148.096-69.248 234.42944h71.48544c0.70656-75.19744 21.376-142.52544 61.952-202.04544 40.576-59.52 95.872-103.04 165.82656-130.56 70.016-26.88 140.16-32 210.56-15.67744 70.33344 16.384 131.2 52.096 182.528 107.136z" p-id="4577"></path></svg>