<svg t="1653476532975" class="icon" viewBox="0 0 1024 1024" version="1.1" xmlns="http://www.w3.org/2000/svg" p-id="4842" width="200" height="200"><path d="M912 620.8c-6.4-25.6-22.4-48-44.8-60.8l-3.2-6.4c-12.8-6.4-19.2-16-22.4-28.8s0-25.6 6.4-35.2c3.2-6.4 9.6-12.8 12.8-16l9.6-6.4c44.8-28.8 60.8-86.4 38.4-137.6l-3.2-3.2s0-3.2-3.2-3.2l-25.6-44.8c-28.8-48-92.8-67.2-144-44.8l-6.4 3.2c-12.8 6.4-25.6 9.6-38.4 6.4-12.8-3.2-22.4-9.6-28.8-22.4-3.2-6.4-6.4-12.8-6.4-19.2v-6.4c0-25.6-9.6-54.4-32-76.8s-51.2-32-80-32h-51.2c-28.8 0-57.6 12.8-80 32-19.2 19.2-28.8 41.6-32 67.2v9.6c0 25.6-22.4 48-48 48-6.4 0-12.8 0-19.2-3.2l-9.6-6.4C249.6 204.8 179.2 224 150.4 275.2L121.6 320c-28.8 51.2-16 112 32 144l6.4 6.4c16 9.6 25.6 25.6 25.6 41.6s-6.4 32-22.4 38.4l-3.2 3.2c-48 28.8-67.2 89.6-44.8 140.8l3.2 6.4 25.6 44.8c12.8 25.6 38.4 44.8 67.2 51.2 25.6 6.4 51.2 6.4 76.8-6.4l6.4-3.2c12.8-6.4 25.6-9.6 38.4-6.4 12.8 3.2 22.4 12.8 28.8 22.4 3.2 6.4 6.4 12.8 6.4 19.2v6.4c0 57.6 51.2 108.8 112 108.8h51.2c57.6 0 105.6-44.8 112-99.2V832c0-12.8 6.4-25.6 12.8-35.2 9.6-9.6 22.4-12.8 35.2-12.8 6.4 0 12.8 3.2 19.2 3.2l6.4 3.2c48 28.8 112 12.8 147.2-32l3.2-6.4 28.8-44.8c22.4-28.8 25.6-60.8 16-86.4z m-64 51.2l-28.8 44.8-3.2 3.2c-12.8 19.2-38.4 25.6-57.6 16l-12.8-6.4c-16-6.4-28.8-9.6-44.8-9.6-32 0-57.6 12.8-80 32s-32 48-32 76.8v3.2c-3.2 22.4-22.4 41.6-48 41.6h-51.2c-25.6 0-44.8-19.2-48-41.6v-16c-3.2-16-6.4-32-16-44.8-16-25.6-38.4-41.6-67.2-51.2-28.8-6.4-57.6-3.2-83.2 9.6l-3.2 3.2c-9.6 3.2-22.4 6.4-32 3.2-12.8-3.2-22.4-12.8-28.8-22.4L176 672l-3.2-3.2c-9.6-22.4-3.2-48 19.2-60.8l6.4-3.2c32-22.4 48-54.4 48-89.6 0-35.2-19.2-70.4-48-89.6l-9.6-6.4c-19.2-12.8-25.6-41.6-12.8-64l28.8-44.8c12.8-22.4 44.8-32 67.2-19.2l9.6 3.2c16 6.4 28.8 9.6 44.8 9.6 57.6 0 108.8-44.8 112-102.4v-12.8c0-9.6 6.4-19.2 12.8-28.8 9.6-9.6 22.4-12.8 35.2-12.8h51.2c12.8 0 25.6 6.4 35.2 16 9.6 9.6 12.8 22.4 12.8 35.2v9.6c3.2 16 6.4 32 16 44.8 16 25.6 38.4 41.6 67.2 51.2s57.6 3.2 83.2-12.8l6.4-3.2 3.2-3.2c22.4-6.4 44.8 3.2 57.6 22.4l25.6 41.6 3.2 6.4c9.6 22.4 3.2 48-19.2 60.8l-6.4 3.2c-16 9.6-25.6 22.4-35.2 35.2-16 25.6-19.2 54.4-12.8 83.2 6.4 25.6 22.4 48 44.8 60.8l12.8 6.4c9.6 6.4 16 16 19.2 25.6 3.2 16 3.2 32-3.2 41.6z" p-id="4843"></path><path d="M512 371.2c-80 0-140.8 64-140.8 140.8s64 140.8 140.8 140.8 140.8-64 140.8-140.8-60.8-140.8-140.8-140.8z m0 217.6c-44.8 0-80-35.2-80-76.8s35.2-76.8 80-76.8 80 35.2 80 76.8-35.2 76.8-80 76.8z" p-id="4844"></path></svg>