<svg t="1644460146185" class="icon" viewBox="0 0 1024 1024" version="1.1" xmlns="http://www.w3.org/2000/svg" p-id="4345" width="200" height="200"><path d="M738.742857 369.371429v307.2c0 21.942857-14.628571 32.914286-32.914286 32.914285H299.885714c-14.628571 0-32.914286-14.628571-32.914285-32.914285v-307.2V256H212.114286v420.571429c0 51.2 40.228571 91.428571 91.428571 91.428571h405.942857c51.2 0 91.428571-40.228571 91.428572-91.428571V256h-58.514286l-3.657143 113.371429z" p-id="4346"></path><path d="M592.457143 548.571429c0 47.542857-40.228571 87.771429-87.771429 87.771428-47.542857 0-87.771429-40.228571-87.771428-87.771428H340.114286c-21.942857 0-36.571429 14.628571-36.571429 36.571428v36.571429c0 21.942857 14.628571 36.571429 36.571429 36.571428h329.142857c21.942857 0 36.571429-14.628571 36.571428-36.571428v-36.571429c0-21.942857-14.628571-36.571429-36.571428-36.571428h-76.8z" p-id="4347"></path><path d="M504.685714 548.571429m-62.171428 0a62.171429 62.171429 0 1 0 124.342857 0 62.171429 62.171429 0 1 0-124.342857 0Z" p-id="4348"></path></svg>