<svg t="1653632330838" class="icon" viewBox="0 0 1024 1024" version="1.1" xmlns="http://www.w3.org/2000/svg" p-id="5538" width="200" height="200"><path d="M464.457143 256H193.828571c-10.971429 0-21.942857 10.971429-21.942857 21.942857v468.114286c0 10.971429 10.971429 21.942857 21.942857 21.942857h270.628572c10.971429 0 21.942857-10.971429 21.942857-21.942857V277.942857c0-10.971429-7.314286-21.942857-21.942857-21.942857z m-36.571429 453.485714H230.4V314.514286h197.485714v394.971428zM837.485714 256h-270.628571c-10.971429 0-21.942857 10.971429-21.942857 21.942857v468.114286c0 10.971429 10.971429 21.942857 21.942857 21.942857h270.628571c10.971429 0 21.942857-10.971429 21.942857-21.942857V277.942857c0-10.971429-7.314286-21.942857-21.942857-21.942857z m-36.571428 453.485714h-197.485715V314.514286h197.485715v394.971428z" p-id="5539"></path></svg>