<svg t="1653632345900" class="icon" viewBox="0 0 1024 1024" version="1.1" xmlns="http://www.w3.org/2000/svg" p-id="5818" width="200" height="200"><path d="M347.428571 380.342857H223.085714c-10.971429 0-21.942857 10.971429-21.942857 21.942857v336.457143c0 10.971429 10.971429 21.942857 21.942857 21.942857h124.342857c10.971429 0 21.942857-10.971429 21.942858-21.942857V402.285714c0-10.971429-10.971429-21.942857-21.942858-21.942857z m-36.571428 321.828572H259.657143V438.857143h51.2v263.314286zM574.171429 380.342857h-124.342858c-10.971429 0-21.942857 10.971429-21.942857 21.942857v336.457143c0 10.971429 10.971429 21.942857 21.942857 21.942857h124.342858c10.971429 0 21.942857-10.971429 21.942857-21.942857V402.285714c0-10.971429-10.971429-21.942857-21.942857-21.942857z m-36.571429 321.828572h-51.2V438.857143h51.2v263.314286zM800.914286 380.342857h-124.342857c-10.971429 0-21.942857 10.971429-21.942858 21.942857v336.457143c0 10.971429 10.971429 21.942857 21.942858 21.942857h124.342857c10.971429 0 21.942857-10.971429 21.942857-21.942857V402.285714c0-10.971429-10.971429-21.942857-21.942857-21.942857z m-36.571429 321.828572h-51.2V438.857143h51.2v263.314286zM826.514286 314.514286c0 7.314286-7.314286 14.628571-14.628572 14.628571H208.457143c-7.314286 0-14.628571-7.314286-14.628572-14.628571v-36.571429c0-7.314286 7.314286-14.628571 14.628572-14.628571h603.428571c7.314286 0 14.628571 7.314286 14.628572 14.628571v36.571429z" p-id="5819"></path></svg>