<svg t="1653632338073" class="icon" viewBox="0 0 1024 1024" version="1.1" xmlns="http://www.w3.org/2000/svg" p-id="5678" width="200" height="200"><path d="M351.085714 256H215.771429c-10.971429 0-21.942857 10.971429-21.942858 21.942857v468.114286c0 10.971429 10.971429 21.942857 21.942858 21.942857h135.314285c10.971429 0 21.942857-10.971429 21.942857-21.942857V277.942857c0-10.971429-7.314286-21.942857-21.942857-21.942857z m-36.571428 453.485714H252.342857V314.514286h62.171429v394.971428zM577.828571 256h-135.314285c-10.971429 0-21.942857 10.971429-21.942857 21.942857v468.114286c0 10.971429 10.971429 21.942857 21.942857 21.942857h135.314285c10.971429 0 21.942857-10.971429 21.942858-21.942857V277.942857c0-10.971429-7.314286-21.942857-21.942858-21.942857z m-36.571428 453.485714h-62.171429V314.514286h62.171429v394.971428zM804.571429 256h-135.314286c-10.971429 0-21.942857 10.971429-21.942857 21.942857v468.114286c0 10.971429 10.971429 21.942857 21.942857 21.942857H804.571429c10.971429 0 21.942857-10.971429 21.942857-21.942857V277.942857c3.657143-10.971429-7.314286-21.942857-21.942857-21.942857z m-36.571429 453.485714h-62.171429V314.514286H768v394.971428z" p-id="5679"></path></svg>