<svg t="1643367219661" class="icon" viewBox="0 0 1024 1024" version="1.1" xmlns="http://www.w3.org/2000/svg" p-id="3581" width="200" height="200"><path d="M456.533333 256h426.666667v93.866667h-426.666667V256z" p-id="3582"></path><path d="M456.533333 426.666667h426.666667v68.266666h-426.666667V426.666667z" p-id="3583"></path><path d="M332.8 256h-170.666667c-17.066667 0-34.133333 17.066667-34.133333 34.133333v170.666667c0 17.066667 17.066667 34.133333 34.133333 34.133333h170.666667c17.066667 0 34.133333-17.066667 34.133333-34.133333v-170.666667c0-17.066667-17.066667-34.133333-34.133333-34.133333zM298.666667 426.666667H196.266667V324.266667H298.666667V426.666667zM332.8 571.733333h-170.666667c-17.066667 0-34.133333 17.066667-34.133333 34.133334v170.666666c0 17.066667 17.066667 34.133333 34.133333 34.133334h170.666667c17.066667 0 34.133333-17.066667 34.133333-34.133334v-170.666666c0-17.066667-17.066667-34.133333-34.133333-34.133334z m-34.133333 170.666667H196.266667V640H298.666667v102.4z" p-id="3584"></path><path d="M456.533333 571.733333h426.666667v93.866667h-426.666667v-93.866667z" p-id="3585"></path><path d="M456.533333 742.4h426.666667V810.666667h-426.666667v-68.266667z" p-id="3586"></path></svg>