<svg t="1644895668507" class="icon" viewBox="0 0 1024 1024" version="1.1" xmlns="http://www.w3.org/2000/svg" p-id="4973" width="200" height="200"><path d="M625.371429 256h-219.428572c-142.628571 0-256 113.371429-256 256s113.371429 256 256 256h219.428572c142.628571 0 256-113.371429 256-256s-113.371429-256-256-256z m-179.2 365.714286H321.828571v-29.257143h47.542858v-149.942857h-36.571429v-21.942857c21.942857-3.657143 32.914286-7.314286 47.542857-14.628572h21.942857v186.514286h43.885715v29.257143z m43.885714 51.2h-21.942857l80.457143-285.257143h21.942857l-80.457143 285.257143z m168.228571-47.542857c-32.914286 0-54.857143-14.628571-69.485714-29.257143l18.285714-21.942857c10.971429 14.628571 29.257143 21.942857 51.2 21.942857 25.6 0 40.228571-14.628571 40.228572-36.571429 0-25.6-14.628571-40.228571-62.171429-40.228571v-25.6c43.885714 0 54.857143-14.628571 54.857143-36.571429 0-18.285714-10.971429-29.257143-32.914286-29.257143-14.628571 0-29.257143 7.314286-43.885714 21.942857l-18.285714-21.942857c18.285714-14.628571 36.571429-25.6 62.171428-25.6 40.228571 0 65.828571 18.285714 65.828572 54.857143 0 25.6-14.628571 43.885714-36.571429 51.2 25.6 7.314286 43.885714 25.6 43.885714 54.857143-3.657143 40.228571-36.571429 62.171429-73.142857 62.171429z" p-id="4974"></path></svg>