<svg t="1643368789309" class="icon" viewBox="0 0 1024 1024" version="1.1" xmlns="http://www.w3.org/2000/svg" p-id="3581" width="200" height="200"><path d="M170.666667 725.333333h315.733333v85.333334H170.666667v-85.333334zM571.733333 725.333333h315.733334v85.333334h-315.733334v-85.333334z" p-id="3582"></path><path d="M443.733333 213.333333H213.333333c-25.6 0-42.666667 17.066667-42.666666 42.666667v341.333333c0 25.6 17.066667 42.666667 42.666666 42.666667h230.4c25.6 0 42.666667-17.066667 42.666667-42.666667V256c0-25.6-17.066667-42.666667-42.666667-42.666667z m-25.6 358.4H238.933333V281.6h179.2v290.133333zM844.8 213.333333h-230.4c-25.6 0-42.666667 17.066667-42.666667 42.666667v341.333333c0 25.6 17.066667 42.666667 42.666667 42.666667h230.4c25.6 0 42.666667-17.066667 42.666667-42.666667V256c0-25.6-21.333333-42.666667-42.666667-42.666667z m-25.6 358.4H640V281.6h179.2v290.133333z" p-id="3583"></path></svg>