<svg t="1637318865194" class="icon" viewBox="0 0 1024 1024" version="1.1" xmlns="http://www.w3.org/2000/svg" p-id="10118" width="200" height="200"><path d="M510.098286 524.653714A192.146286 192.146286 0 0 0 702.390857 331.337143a192.073143 192.073143 0 0 0-192.292571-193.316572 192.073143 192.073143 0 0 0-192.219429 193.316572 192.146286 192.146286 0 0 0 192.219429 193.389714z m-209.188572-44.909714c-6.582857 1.170286-13.312 1.755429-20.187428 1.974857-68.388571 1.828571-129.828571-42.496-146.797715-109.202286-25.161143-99.035429 48.64-187.977143 142.628572-187.977142 10.24 0 19.968 1.097143 29.476571 3.072 1.316571 0.292571 2.706286 0.950857 3.437715 2.048 0.877714 1.462857 0.219429 3.364571-0.731429 4.534857a241.810286 241.810286 0 0 0-44.397714 140.434285c0 49.883429 14.848 96.329143 40.96 134.948572a6.582857 6.582857 0 0 1-4.388572 10.24z m-31.451428 99.474286c1.170286-0.585143 1.389714-1.462857 1.243428-2.048-0.073143-0.292571-0.512-0.950857-1.316571-1.024-56.466286-1.097143-117.028571 6.656-139.410286 12.141714-47.469714 9.362286-78.628571 28.379429-91.574857 56.027429-10.971429 22.747429-10.971429 49.005714 0 71.753142 19.748571 42.934857 83.529143 56.758857 108.324571 60.269715 5.12 0.731429 9.216-3.657143 8.630858-8.777143-12.653714-118.930286 88.064-175.323429 114.102857-188.342857z m624.347428 10.459428c47.396571 9.362286 78.628571 28.379429 91.574857 56.027429 10.971429 22.747429 10.971429 49.078857 0 71.753143-19.748571 42.934857-83.602286 56.758857-108.324571 60.269714-5.12 0.731429-9.289143-3.657143-8.777143-8.777143 12.726857-118.930286-87.990857-175.323429-114.102857-188.342857-1.024-0.585143-1.316571-1.462857-1.170286-1.974857 0.073143-0.365714 0.585143-1.024 1.389715-1.170286 56.32-1.024 117.028571 6.729143 139.410285 12.214857zM512 866.742857c-157.403429 0-291.84-27.062857-291.84-135.168C220.16 623.323429 353.718857 595.382857 512 595.382857c157.476571 0 291.84 27.062857 291.84 135.168 0 108.178286-133.558857 136.192-291.84 136.192z m207.725714-397.312c26.112-38.619429 40.96-85.065143 40.96-134.948571 0-52.077714-16.237714-100.571429-44.470857-140.434286-0.877714-1.170286-1.536-3.145143-0.731428-4.534857 0.731429-1.170286 2.194286-1.755429 3.510857-2.048 9.508571-1.974857 19.236571-3.072 29.476571-3.072 93.988571 0 167.789714 88.941714 142.628572 187.977143-16.969143 66.706286-78.409143 111.030857-146.797715 109.202285a141.458286 141.458286 0 0 1-20.114285-1.974857 6.582857 6.582857 0 0 1-4.461715-10.166857z" p-id="10119"></path></svg>