<?xml version="1.0" standalone="no"?><!DOCTYPE svg PUBLIC "-//W3C//DTD SVG 1.1//EN" "http://www.w3.org/Graphics/SVG/1.1/DTD/svg11.dtd"><svg t="1638527322354" class="icon" viewBox="0 0 1024 1024" version="1.1" xmlns="http://www.w3.org/2000/svg" p-id="21105" xmlns:xlink="http://www.w3.org/1999/xlink" width="200" height="200"><defs><style type="text/css"></style></defs><path d="M512 481.882353c108.423529 0 198.776471-90.352941 198.776471-198.776471S620.423529 78.305882 512 78.305882c-108.423529 0-198.776471 90.352941-198.776471 198.776471S403.576471 481.882353 512 481.882353zM421.647059 620.423529v18.070589c0 6.023529 0 12.047059 6.023529 12.047058l60.235294 78.305883c0 6.023529 6.023529 6.023529 12.047059 12.047059 6.023529 0 12.047059 6.023529 12.047059 6.023529 6.023529 0 12.047059 0 12.047059-6.023529 6.023529 0 6.023529-6.023529 12.047059-12.047059l60.235294-78.305883c6.023529-6.023529 6.023529-6.023529 6.023529-12.047058v-18.070589l-18.070588-60.235294c-6.023529-6.023529-6.023529-12.047059-12.047059-18.070588-6.023529 0-12.047059-6.023529-18.070588-6.023529H469.835294c-6.023529 0-12.047059 6.023529-18.070588 6.023529-6.023529 6.023529-6.023529 12.047059-12.047059 18.070588l-18.070588 60.235294z" p-id="21106"></path><path d="M716.8 554.164706L560.188235 783.058824c-24.094118 36.141176-78.305882 36.141176-102.4 0L307.2 554.164706C174.682353 572.235294 78.305882 626.447059 78.305882 722.823529c0 150.588235 198.776471 186.729412 433.694118 186.729412 234.917647 0 433.694118-36.141176 433.694118-186.729412 0-96.376471-96.376471-150.588235-228.894118-168.658823z" p-id="21107"></path></svg>