<?xml version="1.0" standalone="no"?><!DOCTYPE svg PUBLIC "-//W3C//DTD SVG 1.1//EN" "http://www.w3.org/Graphics/SVG/1.1/DTD/svg11.dtd"><svg t="1638527295678" class="icon" viewBox="0 0 1024 1024" version="1.1" xmlns="http://www.w3.org/2000/svg" p-id="20390" xmlns:xlink="http://www.w3.org/1999/xlink" width="200" height="200"><defs><style type="text/css"></style></defs><path d="M596.329412 385.505882c0 48.188235-36.141176 84.329412-84.329412 84.329412s-84.329412-36.141176-84.329412-84.329412C427.670588 337.317647 463.811765 301.176471 512 301.176471s84.329412 36.141176 84.329412 84.329411z" p-id="20391"></path><path d="M481.882353 42.164706l-301.176471 102.4c-30.117647 12.047059-54.211765 42.164706-54.211764 78.305882v307.2c0 96.376471 36.141176 180.705882 96.37647 252.988236 30.117647 30.117647 66.258824 60.235294 108.42353 84.329411l162.635294 84.329412c12.047059 6.023529 24.094118 6.023529 30.117647 0l162.635294-84.329412c42.164706-24.094118 84.329412-54.211765 108.423529-84.329411 60.235294-72.282353 96.376471-162.635294 96.376471-252.988236V222.870588c0-36.141176-24.094118-66.258824-54.211765-78.305882L536.094118 42.164706c-12.047059-6.023529-36.141176-6.023529-54.211765 0z m168.658823 343.341176c0 66.258824-48.188235 120.470588-108.423529 138.541177v60.235294h60.235294c12.047059 0 24.094118 12.047059 24.094118 24.094118s-12.047059 24.094118-24.094118 24.094117h-60.235294V722.823529c0 18.070588-12.047059 30.117647-30.117647 30.117647s-30.117647-12.047059-30.117647-30.117647V524.047059c-60.235294-12.047059-108.423529-66.258824-108.423529-138.541177 0-78.305882 60.235294-138.541176 138.541176-138.541176s138.541176 60.235294 138.541176 138.541176z" p-id="20392"></path></svg>