<svg t="1658557000768" class="icon" viewBox="0 0 1024 1024" version="1.1" xmlns="http://www.w3.org/2000/svg" p-id="16629" width="200" height="200"><path d="M642.844444 438.044444c28.444444 0 45.511111 22.755556 45.511112 45.511112s-17.066667 45.511111-39.822223 45.511111h-5.688889c-28.444444 0-45.511111-22.755556-45.511111-45.511111s17.066667-45.511111 39.822223-45.511112h5.688888zM426.666667 483.555556c0-28.444444-22.755556-45.511111-45.511111-45.511112h-5.688889c-28.444444 0-45.511111 22.755556-45.511111 45.511112 0 28.444444 22.755556 45.511111 45.511111 45.511111h5.688889c28.444444 0 45.511111-22.755556 45.511111-45.511111z" p-id="16630"></path><path d="M961.422222 694.044444l-39.822222-284.444444c-22.755556-108.088889-96.711111-170.666667-176.355556-170.666667-22.755556-113.777778-113.777778-193.422222-233.244444-193.422222-113.777778 0-210.488889 85.333333-233.244444 193.422222-85.333333 0-153.6 62.577778-176.355556 164.977778L68.266667 682.666667c-34.133333 199.111111 62.577778 290.133333 250.311111 290.133333h386.844444c176.355556 0 278.755556-96.711111 256-278.755556zM512 125.155556c73.955556 0 130.844444 45.511111 153.6 113.777777H358.4c22.755556-62.577778 79.644444-113.777778 153.6-113.777777z m176.355556 762.311111H329.955556c-136.533333 0-193.422222-51.2-170.666667-199.111111l34.133333-256c17.066667-68.266667 56.888889-102.4 102.4-102.4h432.355556c45.511111 0 85.333333 34.133333 96.711111 102.4l34.133333 256c22.755556 130.844444-45.511111 199.111111-170.666666 199.111111zM671.288889 278.755556s-5.688889 0 0 0c-5.688889 0-5.688889 0 0 0-5.688889 0-5.688889 0 0 0-5.688889 0-5.688889 0 0 0zM750.933333 278.755556c5.688889 0 0 0 0 0z" p-id="16631"></path></svg>