<?xml version="1.0" standalone="no"?><!DOCTYPE svg PUBLIC "-//W3C//DTD SVG 1.1//EN" "http://www.w3.org/Graphics/SVG/1.1/DTD/svg11.dtd"><svg t="1638517033265" class="icon" viewBox="0 0 1024 1024" version="1.1" xmlns="http://www.w3.org/2000/svg" p-id="6743" xmlns:xlink="http://www.w3.org/1999/xlink" width="128" height="128"><defs><style type="text/css"></style></defs><path d="M255.601778 383.772444a64.113778 64.113778 0 1 0 128.227555 0 64.113778 64.113778 0 0 0-128.227555 0z m384.568889 0a64.113778 64.113778 0 1 0 128.227555 0 64.113778 64.113778 0 0 0-128.170666 0zM512 800.426667c-89.713778 0-179.484444-44.942222-230.741333-115.370667-19.342222-25.656889-32.028444-57.685333-44.942223-83.285333-6.371556-19.342222 6.371556-38.456889 19.285334-44.942223 19.285333-6.371556 31.971556 6.371556 38.456889 19.285334 6.371556 25.6 19.285333 44.942222 32.028444 64.113778 51.256889 64.113778 115.370667 96.142222 185.799111 96.142222 70.485333 0 141.084444-31.971556 179.484445-89.713778a296.96 296.96 0 0 0 32.028444-64.113778c6.428444-19.228444 25.6-25.6 38.456889-19.228444 19.285333 6.314667 25.6 25.6 19.285333 38.456889-6.485333 31.971556-25.656889 57.628444-44.942222 83.285333-44.714667 70.542222-134.485333 115.370667-224.199111 115.370667zM512 1024c-279.893333 0-512-232.106667-512-512s232.106667-512 512-512 512 232.106667 512 512-232.106667 512-512 512zM512 68.266667C266.24 68.266667 68.266667 266.24 68.266667 512s197.973333 443.733333 443.733333 443.733333 443.733333-197.973333 443.733333-443.733333S757.76 68.266667 512 68.266667z" p-id="6744"></path></svg>