<svg t="1658556980983" class="icon" viewBox="0 0 1024 1024" version="1.1" xmlns="http://www.w3.org/2000/svg" p-id="16348" width="200" height="200"><path d="M859.022222 164.977778H170.666667c-45.511111 0-85.333333 39.822222-85.333334 85.333333v170.666667h45.511111v426.666666c0 45.511111 39.822222 85.333333 85.333334 85.333334h597.333333c45.511111 0 85.333333-39.822222 85.333333-85.333334V420.977778h45.511112v-170.666667c0-45.511111-39.822222-85.333333-85.333334-85.333333z m-45.511111 682.666666H216.177778V420.977778h597.333333v426.666666z m39.822222-512H170.666667V250.311111h682.666666v85.333333z" p-id="16349"></path><path d="M603.022222 585.955556h-170.666666c-28.444444 0-45.511111 22.755556-45.511112 45.511111s17.066667 45.511111 45.511112 45.511111h170.666666c28.444444 0 45.511111-17.066667 45.511111-45.511111s-22.755556-45.511111-45.511111-45.511111z" p-id="16350"></path></svg>