<?xml version="1.0" standalone="no"?><!DOCTYPE svg PUBLIC "-//W3C//DTD SVG 1.1//EN" "http://www.w3.org/Graphics/SVG/1.1/DTD/svg11.dtd"><svg t="1638517028840" class="icon" viewBox="0 0 1024 1024" version="1.1" xmlns="http://www.w3.org/2000/svg" p-id="6600" xmlns:xlink="http://www.w3.org/1999/xlink" width="128" height="128"><defs><style type="text/css"></style></defs><path d="M512 0C227.555556 0 0 227.555556 0 512s227.555556 512 512 512 512-227.555556 512-512-227.555556-512-512-512z m0 955.733333c-244.622222 0-443.733333-199.111111-443.733333-443.733333S267.377778 68.266667 512 68.266667s443.733333 199.111111 443.733333 443.733333-199.111111 443.733333-443.733333 443.733333z" p-id="6601"></path><path d="M745.244444 460.8h-39.822222V375.466667H318.577778v85.333333h-39.822222V341.333333h91.022222c-11.377778-17.066667-28.444444-45.511111-45.511111-68.266666l39.822222-17.066667c17.066667 22.755556 34.133333 51.2 45.511111 68.266667l-34.133333 17.066666h119.466666V250.311111h39.822223V341.333333h210.488888v119.466667z m-34.133333 244.622222c0 22.755556-5.688889 34.133333-22.755555 39.822222-17.066667 5.688889-45.511111 5.688889-91.022223 5.688889 0-11.377778-11.377778-28.444444-17.066666-39.822222h73.955555c5.688889 0 11.377778 0 11.377778-11.377778V625.777778H540.444444v147.911111h-45.511111V625.777778H352.711111v125.155555h-39.822222v-164.977777h182.044444v-45.511112H364.088889V420.977778h295.822222v119.466666H540.444444v45.511112h176.355556v119.466666zM403.911111 506.311111h216.177778v-56.888889H403.911111v56.888889z m295.822222-233.244444c-17.066667 22.755556-39.822222 51.2-56.888889 68.266666l-34.133333-11.377777c17.066667-17.066667 34.133333-51.2 45.511111-68.266667l45.511111 11.377778z" p-id="6602"></path></svg>