<?xml version="1.0" standalone="no"?><!DOCTYPE svg PUBLIC "-//W3C//DTD SVG 1.1//EN" "http://www.w3.org/Graphics/SVG/1.1/DTD/svg11.dtd"><svg t="1640930232523" class="icon" viewBox="0 0 1024 1024" version="1.1" xmlns="http://www.w3.org/2000/svg" p-id="3165" xmlns:xlink="http://www.w3.org/1999/xlink" width="128" height="128"><defs><style type="text/css"></style></defs><path d="M512 42.164706C271.058824 42.164706 72.282353 240.941176 72.282353 481.882353S271.058824 921.6 512 921.6 951.717647 722.823529 951.717647 481.882353 752.941176 42.164706 512 42.164706z m174.682353 596.329412c0 30.117647-18.070588 42.164706-48.188235 42.164706h-36.141177l-12.047059-36.141177h36.141177c12.047059 0 24.094118-6.023529 24.094117-18.070588v-48.188235h-120.470588v126.494117h-36.141176V578.258824h-120.470588v102.4h-36.141177V542.117647h156.611765v-36.141176H385.505882V397.552941h259.011765v108.42353H530.070588V542.117647h156.611765v96.376471z m30.117647-216.847059h-36.141176V355.388235H343.341176V421.647059h-36.141176V325.270588h78.305882c-6.023529-18.070588-18.070588-36.141176-30.117647-54.211764l36.141177-12.047059c6.023529 18.070588 18.070588 42.164706 30.117647 66.258823h72.282353V246.964706h36.141176v78.305882h60.235294c18.070588-24.094118 30.117647-48.188235 42.164706-72.282353l36.141177 12.047059c-12.047059 24.094118-24.094118 42.164706-36.141177 54.211765h90.352941V421.647059z" p-id="3166"></path><path d="M421.647059 427.670588h186.729412v48.188236H421.647059z" p-id="3167"></path></svg>