<?xml version="1.0" standalone="no"?><!DOCTYPE svg PUBLIC "-//W3C//DTD SVG 1.1//EN" "http://www.w3.org/Graphics/SVG/1.1/DTD/svg11.dtd"><svg t="1640930464663" class="icon" viewBox="0 0 1024 1024" version="1.1" xmlns="http://www.w3.org/2000/svg" p-id="9204" xmlns:xlink="http://www.w3.org/1999/xlink" width="128" height="128"><defs><style type="text/css"></style></defs><path d="M475.858824 78.305882C259.011765 78.305882 84.329412 222.870588 84.329412 397.552941 84.329412 505.976471 150.588235 602.352941 252.988235 662.588235v102.4c0 12.047059 12.047059 24.094118 24.094118 24.094118h12.047059L391.529412 710.776471c24.094118 6.023529 54.211765 6.023529 84.329412 6.023529 216.847059 0 391.529412-144.564706 391.529411-319.247059 0-180.705882-174.682353-319.247059-391.529411-319.247059z m-180.705883 355.388236c-24.094118 0-42.164706-18.070588-42.164706-42.164706 0-24.094118 18.070588-42.164706 48.188236-42.164706 24.094118 0 48.188235 18.070588 48.188235 42.164706-6.023529 24.094118-24.094118 42.164706-54.211765 42.164706z m180.705883 0c-24.094118 0-48.188235-18.070588-48.188236-42.164706 0-24.094118 18.070588-42.164706 48.188236-42.164706 24.094118 0 48.188235 18.070588 48.188235 42.164706 0 24.094118-24.094118 42.164706-48.188235 42.164706z m174.682352 0c-24.094118 0-48.188235-18.070588-48.188235-42.164706 0-24.094118 18.070588-42.164706 48.188235-42.164706 24.094118 0 48.188235 18.070588 48.188236 42.164706 0 24.094118-18.070588 42.164706-48.188236 42.164706z" p-id="9205"></path><path d="M939.670588 481.882353c-6.023529 24.094118-12.047059 42.164706-24.094117 66.258823v6.02353c6.023529 18.070588 12.047059 36.141176 12.047058 54.211765 0 48.188235-30.117647 96.376471-78.305882 126.494117l-6.023529 6.02353-6.02353 6.023529v6.023529l6.02353 42.164706-36.141177-30.117647-6.023529-6.023529c-6.023529 0-6.023529-6.023529-12.047059 0h-6.023529c-12.047059 0-24.094118 6.023529-42.164706 6.023529-30.117647 0-60.235294-6.023529-90.352942-18.070588-24.094118 6.023529-54.211765 12.047059-78.305882 12.047059 42.164706 36.141176 102.4 60.235294 168.658824 60.235294 18.070588 0 36.141176 0 48.188235-6.023529l66.258823 42.164705h6.02353c6.023529 0 12.047059-6.023529 12.047059-12.047058v-66.258824c60.235294-36.141176 102.4-102.4 102.4-174.682353 6.023529-42.164706-12.047059-84.329412-36.141177-120.470588z" p-id="9206"></path></svg>