<?xml version="1.0" standalone="no"?><!DOCTYPE svg PUBLIC "-//W3C//DTD SVG 1.1//EN" "http://www.w3.org/Graphics/SVG/1.1/DTD/svg11.dtd"><svg t="1640930435131" class="icon" viewBox="0 0 1024 1024" version="1.1" xmlns="http://www.w3.org/2000/svg" p-id="9062" xmlns:xlink="http://www.w3.org/1999/xlink" width="128" height="128"><defs><style type="text/css"></style></defs><path d="M819.2 102.4H204.8C138.541176 102.4 90.352941 150.588235 90.352941 216.847059v590.305882c0 48.188235 42.164706 72.282353 90.352941 48.188235 18.070588-6.023529 162.635294-90.352941 162.635294-90.352941h481.882353c60.235294 0 114.447059-54.211765 114.447059-114.447059V216.847059c-6.023529-66.258824-54.211765-114.447059-120.470588-114.447059zM313.223529 493.929412c-36.141176 0-60.235294-30.117647-60.235294-60.235294s30.117647-60.235294 60.235294-60.235294 60.235294 30.117647 60.235295 60.235294-24.094118 60.235294-60.235295 60.235294z m198.776471 0c-36.141176 0-60.235294-30.117647-60.235294-60.235294s30.117647-60.235294 60.235294-60.235294 60.235294 30.117647 60.235294 60.235294-24.094118 60.235294-60.235294 60.235294z m198.776471 0c-36.141176 0-60.235294-30.117647-60.235295-60.235294s30.117647-60.235294 60.235295-60.235294 60.235294 30.117647 60.235294 60.235294-24.094118 60.235294-60.235294 60.235294z" p-id="9063"></path></svg>