<svg t="1638528988132" class="icon" viewBox="0 0 1024 1024" version="1.1" xmlns="http://www.w3.org/2000/svg" p-id="5495" width="200" height="200"><path d="M806.4 569.6V224c0-64-51.2-108.8-108.8-108.8H153.6c-64 0-108.8 51.2-108.8 108.8v512c0 51.2 57.6 19.2 121.6-12.8 44.8-19.2 89.6-44.8 128-44.8H704c57.6 0 102.4-44.8 102.4-108.8z m-588.8-128c-32 0-57.6-25.6-57.6-57.6s25.6-64 57.6-64 57.6 25.6 57.6 64-25.6 57.6-57.6 57.6z m204.8 0c-32 0-57.6-25.6-57.6-57.6s25.6-64 57.6-64c38.4 0 64 25.6 64 64s-25.6 57.6-64 57.6z m211.2 0c-32 0-57.6-25.6-57.6-57.6s25.6-64 57.6-64 57.6 25.6 57.6 57.6-25.6 64-57.6 64z" fill="#FAAD14" p-id="5496"></path><path d="M864 345.6v224c0 89.6-76.8 166.4-166.4 166.4H339.2c12.8 51.2 57.6 89.6 115.2 89.6h288c32 0 76.8 25.6 121.6 44.8 64 32 121.6 57.6 121.6 12.8V467.2c-6.4-64-57.6-121.6-121.6-121.6z" fill="#FAAD14" p-id="5497"></path></svg>