<?xml version="1.0" standalone="no"?><!DOCTYPE svg PUBLIC "-//W3C//DTD SVG 1.1//EN" "http://www.w3.org/Graphics/SVG/1.1/DTD/svg11.dtd"><svg t="1640835073685" class="icon" viewBox="0 0 1024 1024" version="1.1" xmlns="http://www.w3.org/2000/svg" p-id="5283" xmlns:xlink="http://www.w3.org/1999/xlink" width="128" height="128"><defs><style type="text/css"></style></defs><path d="M512 85.333333C264.533333 85.333333 85.333333 285.866667 85.333333 512c0 72.533333 21.333333 145.066667 55.466667 213.333333 8.533333 12.8 8.533333 25.6 4.266667 38.4l-29.866667 93.866667c-8.533333 21.333333 12.8 38.4 34.133333 34.133333l85.333334-25.6c21.333333-8.533333 42.666667 4.266667 64 17.066667 64 38.4 145.066667 55.466667 213.333333 55.466667 213.333333 0 426.666667-162.133333 426.666667-426.666667 0-226.133333-183.466667-426.666667-426.666667-426.666667zM307.2 571.733333c-34.133333 0-59.733333-25.6-59.733333-59.733333s25.6-59.733333 59.733333-59.733333 59.733333 25.6 59.733333 59.733333-25.6 59.733333-59.733333 59.733333z m204.8 0c-34.133333 0-59.733333-25.6-59.733333-59.733333s25.6-59.733333 59.733333-59.733333 59.733333 25.6 59.733333 59.733333-25.6 59.733333-59.733333 59.733333z m204.8 0c-34.133333 0-59.733333-25.6-59.733333-59.733333s25.6-59.733333 59.733333-59.733333 59.733333 25.6 59.733333 59.733333-29.866667 59.733333-59.733333 59.733333z" p-id="5284"></path></svg>