<?xml version="1.0" standalone="no"?><!DOCTYPE svg PUBLIC "-//W3C//DTD SVG 1.1//EN" "http://www.w3.org/Graphics/SVG/1.1/DTD/svg11.dtd"><svg t="1640930422947" class="icon" viewBox="0 0 1024 1024" version="1.1" xmlns="http://www.w3.org/2000/svg" p-id="8920" xmlns:xlink="http://www.w3.org/1999/xlink" width="128" height="128"><defs><style type="text/css"></style></defs><path d="M512 48.188235C271.058824 48.188235 78.305882 246.964706 78.305882 481.882353c0 240.941176 192.752941 433.694118 433.694118 433.694118S945.694118 722.823529 945.694118 481.882353C945.694118 246.964706 752.941176 48.188235 512 48.188235z m0 692.705883c-30.117647 0-54.211765-24.094118-54.211765-54.211765s24.094118-48.188235 54.211765-48.188235 54.211765 24.094118 54.211765 48.188235c0 36.141176-24.094118 54.211765-54.211765 54.211765z m78.305882-222.870589c-24.094118 18.070588-36.141176 42.164706-42.164706 66.258824 0 12.047059-12.047059 18.070588-18.070588 18.070588h-42.164706c-12.047059 0-18.070588-12.047059-18.070588-18.070588 0-18.070588 6.023529-36.141176 12.047059-48.188235 6.023529-24.094118 30.117647-42.164706 48.188235-60.235294 30.117647-24.094118 60.235294-48.188235 60.235294-90.352942s-30.117647-72.282353-72.282353-72.282353-78.305882 24.094118-84.329411 72.282353c0 24.094118-18.070588 30.117647-36.141177 30.117647s-36.141176-18.070588-36.141176-36.141176c6.023529-84.329412 78.305882-132.517647 162.635294-132.517647 78.305882 0 150.588235 48.188235 150.588235 132.517647-6.023529 66.258824-42.164706 102.4-84.329412 138.541176z" p-id="8921"></path></svg>