<svg t="1637319211834" class="icon" viewBox="0 0 1024 1024" version="1.1" xmlns="http://www.w3.org/2000/svg" p-id="15828" width="200" height="200"><path d="M753.07472915 197.34794255c19.94645704-19.88040917 54.15925422-20.7390315 74.23780701-0.66047871 20.14460066 20.14460066 19.28597833 54.35739783-0.66047871 74.23780701L585.57732829 512l241.47101639 241.47101638 0.39628721 0.39628722a52.24386597 52.24386597 0 0 1-1.32095742 72.32241875 52.30991383 52.30991383 0 0 1-72.25637087 1.25490954l-0.39628722-0.39628721L512 585.57732829l-241.53706425 241.60311212c-20.47484001 19.02178685-54.02715848 20.47484001-73.97361552 0a53.49877551 53.49877551 0 0 1 0.85862232-74.03966339L438.42267171 512 197.0177032 270.5950315l-0.39628723-0.39628723a52.24386597 52.24386597 0 0 1 1.32095742-72.32241874 52.30991383 52.30991383 0 0 1 72.25637088-1.25490956l0.39628723 0.39628723L512 438.42267171l241.07472915-241.07472916z" p-id="15829"></path></svg>