<svg t="1658556819026" class="icon" viewBox="0 0 1024 1024" version="1.1" xmlns="http://www.w3.org/2000/svg" p-id="14385" width="200" height="200"><path d="M665.6 307.2c22.755556 17.066667 22.755556 45.511111 11.377778 62.577778l-73.955556 96.711111h45.511111c22.755556 0 45.511111 22.755556 45.511111 45.511111s-22.755556 45.511111-45.511111 45.511111H557.511111v45.511111h91.022222c22.755556 0 45.511111 22.755556 45.511111 45.511111s-22.755556 45.511111-45.511111 45.511111H557.511111v45.511112c0 22.755556-22.755556 45.511111-45.511111 45.511111s-45.511111-22.755556-45.511111-45.511111v-45.511112H375.466667c-22.755556 0-45.511111-22.755556-45.511111-45.511111s22.755556-45.511111 45.511111-45.511111h91.022222v-39.822222H375.466667c-22.755556 0-45.511111-22.755556-45.511111-45.511111s22.755556-45.511111 45.511111-45.511111h45.511111L347.022222 375.466667c-17.066667-22.755556-11.377778-51.2 11.377778-68.266667 22.755556-17.066667 51.2-11.377778 62.577778 11.377778L512 443.733333l91.022222-125.155555c17.066667-17.066667 45.511111-22.755556 62.577778-11.377778z" p-id="14386"></path><path d="M512 62.577778c-250.311111 0-455.111111 204.8-455.111111 455.111111s204.8 455.111111 455.111111 455.111111 455.111111-204.8 455.111111-455.111111-204.8-455.111111-455.111111-455.111111z m0 819.2c-199.111111 0-364.088889-164.977778-364.088889-364.088889S312.888889 153.6 512 153.6s364.088889 164.977778 364.088889 364.088889-164.977778 364.088889-364.088889 364.088889z" p-id="14387"></path></svg>