<svg t="1640860290989" class="icon" viewBox="0 0 1024 1024" version="1.1" xmlns="http://www.w3.org/2000/svg" p-id="3819" width="200" height="200"><path d="M132.94227268 373.4934612a13.52087448 13.52087448 0 0 1 18.72641133-12.50680874L456.90243446 488.48850207a40.56262438 40.56262438 0 0 1 24.94601482 37.45282356v325.98829326a27.04174989 27.04174989 0 0 1-37.99365868 24.74320131 21742.64847998 21742.64847998 0 0 0-232.55904835-100.86572676c-44.21326125-20.14610318-78.42107405-68.28041841-78.42107406-117.63161108v-284.61441666z" p-id="3820"></path><path d="M864.89483415 360.98665246a13.52087448 13.52087448 0 0 1 18.72641225 12.50680874v282.99191128c0 51.78495119-40.29220728 105.39521944-85.58713788 128.04268565-75.71689933 31.43603449-151.16338157 63.14248609-227.08309443 93.97008004a26.97414539 26.97414539 0 0 1-37.04719651-25.0136184V525.87372112a40.56262438 40.56262438 0 0 1 25.01361839-37.45282356l306.04500268-127.4342451z" p-id="3821"></path><path d="M830.21379074 269.11230752a27.04174989 27.04174989 0 0 1 0.47323061 50.2300503L532.95735633 440.69220935a54.0834998 54.0834998 0 0 1-40.7654379 0L193.44818765 319.27475333a27.04174989 27.04174989 0 0 1 0.40562611-50.23005032l298.27050016-115.33306249a54.0834998 54.0834998 0 0 1 39.00772442 0l299.0817524 115.400667z" p-id="3822"></path></svg>