<?xml version="1.0" standalone="no"?><!DOCTYPE svg PUBLIC "-//W3C//DTD SVG 1.1//EN" "http://www.w3.org/Graphics/SVG/1.1/DTD/svg11.dtd"><svg t="1638527274944" class="icon" viewBox="0 0 1024 1024" version="1.1" xmlns="http://www.w3.org/2000/svg" p-id="20106" xmlns:xlink="http://www.w3.org/1999/xlink" width="200" height="200"><defs><style type="text/css"></style></defs><path d="M891.482353 168.658824c-42.164706-42.164706-102.4-66.258824-156.611765-66.258824H289.129412C162.635294 102.4 66.258824 204.8 66.258824 325.270588v349.364706c0 126.494118 102.4 222.870588 222.870588 222.870588h439.717647c126.494118 0 222.870588-102.4 222.870588-222.870588V325.270588c6.023529-60.235294-18.070588-114.447059-60.235294-156.611764z m-84.329412 222.870588L602.352941 554.164706c-24.094118 18.070588-54.211765 30.117647-90.352941 30.117647-30.117647 0-60.235294-12.047059-84.329412-30.117647L222.870588 397.552941l-6.023529-6.023529c-6.023529-12.047059-6.023529-36.141176 6.023529-48.188236 12.047059-12.047059 30.117647-12.047059 42.164706-6.023529l198.776471 162.635294c24.094118 24.094118 66.258824 24.094118 90.352941 0L752.941176 337.317647c6.023529-6.023529 18.070588-12.047059 24.094118-6.023529 6.023529 0 18.070588 6.023529 24.094118 12.047058 18.070588 18.070588 18.070588 36.141176 6.023529 48.188236z" p-id="20107"></path></svg>