<svg t="1640860801208" class="icon" viewBox="0 0 1024 1024" version="1.1" xmlns="http://www.w3.org/2000/svg" p-id="3390" width="200" height="200"><path d="M162.635294 758.964706h367.435294c0-12.047059 6.023529-24.094118 12.047059-30.117647L620.423529 602.352941c12.047059-18.070588 30.117647-36.141176 48.188236-48.188235V349.364706h96.37647c18.070588 0 36.141176 6.023529 48.188236 12.047059 12.047059 12.047059 18.070588 24.094118 18.070588 36.141176v12.047059c0 6.023529-6.023529 12.047059-6.02353 18.070588-6.023529 6.023529-12.047059 12.047059-24.094117 18.070588 6.023529 0 12.047059 0 12.047059 6.02353 0 0 6.023529 0 6.023529 6.023529 6.023529 0 6.023529 6.023529 12.047059 6.02353 6.023529 6.023529 12.047059 18.070588 12.047059 36.141176s-6.023529 36.141176-18.070589 42.164706h36.141177c36.141176 0 66.258824 18.070588 84.329412 42.164706V240.941176c0-48.188235-36.141176-84.329412-84.329412-84.329411H162.635294C114.447059 150.588235 78.305882 192.752941 78.305882 240.941176v433.694118c0 48.188235 36.141176 84.329412 84.329412 84.329412z m319.247059-409.6H632.470588v30.117647H518.023529v60.235294h108.42353v30.117647H518.023529v60.235294h120.470589v30.117647H481.882353V349.364706z m-259.011765 0l42.164706 156.611765 42.164706-156.611765h36.141176l42.164706 156.611765 42.164706-156.611765h36.141177l-60.235294 210.823529h-42.164706l-36.141177-156.611764-42.164706 156.611764h-36.141176l-60.235294-210.823529h36.141176zM536.094118 813.176471H132.517647c-30.117647 0-54.211765 24.094118-54.211765 54.211764s24.094118 54.211765 54.211765 54.211765h463.811765l-48.188236-84.329412c-6.023529-6.023529-6.023529-12.047059-12.047058-24.094117z" p-id="3391"></path><path d="M795.105882 409.6c0-6.023529 0-12.047059-6.023529-18.070588-6.023529-6.023529-18.070588-6.023529-30.117647-6.02353h-54.211765v60.235294h54.211765c12.047059 0 24.094118 0 30.117647-6.023529 6.023529-12.047059 6.023529-18.070588 6.023529-30.117647zM704.752941 530.070588h54.211765c12.047059 0 24.094118 0 30.117647-6.023529 12.047059-6.023529 12.047059-12.047059 12.047059-24.094118s-6.023529-18.070588-12.047059-24.094117c-6.023529-6.023529-18.070588-6.023529-36.141177-6.02353h-60.235294v60.235294zM981.835294 752.941176l-72.282353-126.494117c-12.047059-18.070588-30.117647-30.117647-54.211765-30.117647h-144.564705c-24.094118 0-42.164706 12.047059-54.211765 30.117647l-72.282353 126.494117c-12.047059 18.070588-12.047059 42.164706 0 60.235295l72.282353 126.494117c12.047059 18.070588 30.117647 30.117647 54.211765 30.117647h144.564705c24.094118 0 42.164706-12.047059 54.211765-30.117647l72.282353-126.494117c12.047059-18.070588 12.047059-42.164706 0-60.235295z m-126.494118 144.564706h-132.517647L656.564706 783.058824l66.258823-114.447059h132.517647l66.258824 114.447059-66.258824 114.447058z" p-id="3392"></path><path d="M783.058824 728.847059c-30.117647 0-54.211765 24.094118-54.211765 54.211765s24.094118 54.211765 54.211765 54.211764 54.211765-24.094118 54.211764-54.211764-24.094118-54.211765-54.211764-54.211765z" p-id="3393"></path></svg>