<?xml version="1.0" standalone="no"?><!DOCTYPE svg PUBLIC "-//W3C//DTD SVG 1.1//EN" "http://www.w3.org/Graphics/SVG/1.1/DTD/svg11.dtd"><svg t="1638527300985" class="icon" viewBox="0 0 1024 1024" version="1.1" xmlns="http://www.w3.org/2000/svg" p-id="20533" xmlns:xlink="http://www.w3.org/1999/xlink" width="200" height="200"><defs><style type="text/css"></style></defs><path d="M831.247059 54.211765h-162.635294c-66.258824 0-120.470588 54.211765-120.470589 126.494117v162.635294c0 66.258824 54.211765 126.494118 126.494118 126.494118h162.635294c66.258824 0 126.494118-54.211765 126.494118-126.494118V180.705882c-6.023529-72.282353-60.235294-126.494118-132.517647-126.494117zM355.388235 54.211765H192.752941C120.470588 54.211765 66.258824 108.423529 66.258824 180.705882v162.635294c0 66.258824 54.211765 126.494118 126.494117 126.494118h162.635294c66.258824 0 126.494118-54.211765 126.494118-126.494118V180.705882C475.858824 108.423529 421.647059 54.211765 355.388235 54.211765zM355.388235 536.094118H192.752941C126.494118 536.094118 66.258824 590.305882 66.258824 662.588235v162.635294c0 66.258824 54.211765 126.494118 126.494117 126.494118h162.635294c66.258824 0 126.494118-54.211765 126.494118-126.494118V662.588235c-6.023529-72.282353-60.235294-126.494118-126.494118-126.494117zM831.247059 536.094118h-162.635294c-66.258824 0-126.494118 54.211765-126.494118 126.494117v162.635294c0 66.258824 54.211765 126.494118 126.494118 126.494118h162.635294c66.258824 0 126.494118-54.211765 126.494117-126.494118V662.588235c0-72.282353-54.211765-126.494118-126.494117-126.494117z" p-id="20534"></path></svg>