<?xml version="1.0" standalone="no"?><!DOCTYPE svg PUBLIC "-//W3C//DTD SVG 1.1//EN" "http://www.w3.org/Graphics/SVG/1.1/DTD/svg11.dtd"><svg t="1640930385321" class="icon" viewBox="0 0 1024 1024" version="1.1" xmlns="http://www.w3.org/2000/svg" p-id="8776" xmlns:xlink="http://www.w3.org/1999/xlink" width="128" height="128"><defs><style type="text/css"></style></defs><path d="M734.870588 692.705882a48.188235 48.188235 0 1 0 96.376471 0 48.188235 48.188235 0 1 0-96.376471 0Z" p-id="8777"></path><path d="M975.811765 668.611765l-72.282353-120.470589c-12.047059-18.070588-30.117647-30.117647-54.211765-30.117647h-138.541176c-24.094118 0-42.164706 12.047059-54.211765 30.117647l-72.282353 120.470589c-12.047059 18.070588-12.047059 42.164706 0 60.235294l72.282353 120.470588c12.047059 18.070588 30.117647 30.117647 54.211765 30.117647h138.541176c24.094118 0 42.164706-12.047059 54.211765-30.117647l72.282353-120.470588c12.047059-18.070588 12.047059-42.164706 0-60.235294z m-126.494118 138.541176h-132.517647l-66.258824-114.447059 66.258824-114.447058h132.517647l66.258824 114.447058-66.258824 114.447059z" p-id="8778"></path><path d="M548.141176 644.517647l72.282353-120.470588c18.070588-36.141176 54.211765-54.211765 96.376471-54.211765h138.541176c12.047059 0 24.094118 0 36.141177 6.02353 0-216.847059-228.894118-349.364706-427.670588-349.364706-234.917647-6.023529-421.647059 150.588235-421.647059 343.341176 0 102.4 60.235294 198.776471 144.564706 265.035294 6.023529 0 6.023529 6.023529 6.023529 12.047059s6.023529 6.023529 6.02353 12.047059v6.023529c-6.023529 12.047059-6.023529 30.117647-12.047059 48.188236-6.023529 12.047059-6.023529 24.094118-6.02353 24.094117v24.094118H198.776471l90.352941-54.211765c6.023529-6.023529 12.047059-6.023529 24.094117-6.023529h12.047059c48.188235 12.047059 90.352941 18.070588 138.541177 18.070588 42.164706 0 78.305882-6.023529 114.447059-12.047059l-30.117648-54.211765c-18.070588-36.141176-18.070588-78.305882 0-108.423529z" p-id="8779"></path></svg>