<svg t="1640860366701" class="icon" viewBox="0 0 1024 1024" version="1.1" xmlns="http://www.w3.org/2000/svg" p-id="4087" width="200" height="200"><path d="M729.6 524.8h83.2V224c0-64-51.2-108.8-108.8-108.8H153.6c-64 0-108.8 51.2-108.8 108.8v512c0 51.2 57.6 19.2 121.6-12.8 44.8-19.2 89.6-44.8 128-44.8H576l57.6-96c12.8-38.4 51.2-57.6 96-57.6z m-512-83.2c-32 0-57.6-25.6-57.6-57.6s25.6-64 57.6-64 57.6 25.6 57.6 64-25.6 57.6-57.6 57.6z m204.8 0c-32 0-57.6-25.6-57.6-57.6s25.6-64 57.6-64c38.4 0 64 25.6 64 64s-25.6 57.6-64 57.6zM576 384c0-38.4 25.6-64 57.6-64s57.6 25.6 57.6 57.6-25.6 57.6-57.6 57.6S576 416 576 384zM537.6 736H339.2c12.8 51.2 57.6 89.6 115.2 89.6h96c-19.2-25.6-19.2-57.6-12.8-89.6zM979.2 582.4V467.2c0-64-51.2-115.2-115.2-115.2v172.8h19.2c38.4 0 76.8 19.2 96 57.6z" p-id="4088"></path><path d="M1011.2 742.4l-76.8-134.4c-6.4-19.2-32-32-51.2-32h-153.6c-25.6 0-44.8 12.8-57.6 32l-76.8 134.4c-12.8 19.2-12.8 44.8 0 64l76.8 134.4c12.8 19.2 32 32 57.6 32h153.6c25.6 0 44.8-12.8 57.6-32l76.8-134.4c6.4-19.2 6.4-44.8-6.4-64zM876.8 896h-140.8l-70.4-121.6 70.4-121.6h140.8l70.4 121.6-70.4 121.6z" p-id="4089"></path><path d="M800 716.8c-32 0-57.6 25.6-57.6 57.6s25.6 57.6 57.6 57.6 57.6-25.6 57.6-57.6-25.6-57.6-57.6-57.6z" p-id="4090"></path></svg>