<?xml version="1.0" standalone="no"?><!DOCTYPE svg PUBLIC "-//W3C//DTD SVG 1.1//EN" "http://www.w3.org/Graphics/SVG/1.1/DTD/svg11.dtd"><svg t="1638527269729" class="icon" viewBox="0 0 1024 1024" version="1.1" xmlns="http://www.w3.org/2000/svg" p-id="19963" xmlns:xlink="http://www.w3.org/1999/xlink" width="200" height="200"><defs><style type="text/css"></style></defs><path d="M921.6 409.6c0-12.047059-12.047059-24.094118-24.094118-24.094118H752.941176c-90.352941 0-156.611765-72.282353-156.611764-162.635294V72.282353c0-12.047059-12.047059-24.094118-24.094118-24.094118H319.247059c-120.470588 0-216.847059 96.376471-216.847059 216.847059V722.823529c0 126.494118 102.4 228.894118 222.870588 228.894118h379.482353c120.470588 0 216.847059-96.376471 216.847059-216.847059V409.6z m-560.188235-36.141176h162.635294c18.070588 0 36.141176 18.070588 36.141176 36.141176s-18.070588 36.141176-36.141176 36.141176H361.411765c-18.070588 0-36.141176-18.070588-36.141177-36.141176s18.070588-36.141176 36.141177-36.141176z m265.035294 313.223529H361.411765c-18.070588 0-36.141176-18.070588-36.141177-36.141177s18.070588-36.141176 36.141177-36.141176h259.011764c18.070588 0 36.141176 18.070588 36.141177 36.141176s-12.047059 36.141176-30.117647 36.141177z" p-id="19964"></path><path d="M758.964706 319.247059h120.470588c18.070588 0 30.117647-24.094118 18.070588-36.141177-24.094118-24.094118-60.235294-66.258824-96.37647-102.4-36.141176-36.141176-72.282353-72.282353-96.376471-102.4-12.047059-12.047059-42.164706-6.023529-42.164706 18.070589v126.494117c0 48.188235 42.164706 96.376471 96.376471 96.376471z" p-id="19965"></path></svg>