<svg t="1649327586639" class="icon" viewBox="0 0 1024 1024" version="1.1" xmlns="http://www.w3.org/2000/svg" p-id="4450" width="200" height="200"><path d="M768 832a126.293333 126.293333 0 0 1-37.546667 90.453333 126.549333 126.549333 0 0 1-90.453333 37.546667H192a126.293333 126.293333 0 0 1-90.453333-37.546667 126.549333 126.549333 0 0 1-37.546667-90.453333V384a126.293333 126.293333 0 0 1 37.546667-90.453333A126.549333 126.549333 0 0 1 192 256v64a64.853333 64.853333 0 0 0-64 64v448a64.512 64.512 0 0 0 64 64H640a64.853333 64.853333 0 0 0 64-64H768zM384 128a64.853333 64.853333 0 0 0-64 64V640a64.853333 64.853333 0 0 0 64 64h448a64.512 64.512 0 0 0 64-64V192a64.853333 64.853333 0 0 0-64-64H384z m0-64h448a126.293333 126.293333 0 0 1 90.453333 37.546667c24.32 24.32 36.864 54.442667 37.546667 90.453333V640a126.293333 126.293333 0 0 1-37.546667 90.453333A126.549333 126.549333 0 0 1 832 768H384a126.293333 126.293333 0 0 1-90.453333-37.546667A126.549333 126.549333 0 0 1 256 640V192a126.293333 126.293333 0 0 1 37.546667-90.453333A126.549333 126.549333 0 0 1 384 64z" p-id="4451"></path></svg>