<?xml version="1.0" standalone="no"?><!DOCTYPE svg PUBLIC "-//W3C//DTD SVG 1.1//EN" "http://www.w3.org/Graphics/SVG/1.1/DTD/svg11.dtd"><svg t="1638527222725" class="icon" viewBox="0 0 1024 1024" version="1.1" xmlns="http://www.w3.org/2000/svg" p-id="18967" xmlns:xlink="http://www.w3.org/1999/xlink" width="200" height="200"><defs><style type="text/css"></style></defs><path d="M144.564706 457.788235h138.541176c42.164706 0 78.305882-36.141176 78.305883-78.305882v-240.941177c0-42.164706-36.141176-78.305882-78.305883-78.305882H144.564706C102.4 60.235294 66.258824 96.376471 66.258824 138.541176v234.917648c0 48.188235 36.141176 84.329412 78.305882 84.329411zM957.741176 379.482353v-240.941177c0-42.164706-36.141176-78.305882-78.305882-78.305882H542.117647c-42.164706 0-78.305882 36.141176-78.305882 78.305882v234.917648c0 42.164706 36.141176 78.305882 78.305882 78.305882h337.317647c42.164706 6.023529 78.305882-30.117647 78.305882-72.282353zM849.317647 554.164706h-126.494118c-60.235294 0-108.423529 48.188235-108.423529 108.423529v180.705883c0 60.235294 48.188235 108.423529 108.423529 108.423529h126.494118c60.235294 0 108.423529-48.188235 108.423529-108.423529v-180.705883c0-60.235294-48.188235-108.423529-108.423529-108.423529z m30.117647 289.129412c0 18.070588-12.047059 30.117647-30.117647 30.117647h-126.494118c-18.070588 0-30.117647-12.047059-30.117647-30.117647v-180.705883c0-18.070588 12.047059-30.117647 30.117647-30.117647h126.494118c18.070588 0 30.117647 12.047059 30.117647 30.117647v180.705883zM433.694118 554.164706H144.564706c-42.164706 0-78.305882 36.141176-78.305882 78.305882v234.917647c0 42.164706 36.141176 78.305882 78.305882 78.305883h289.129412c42.164706 0 78.305882-36.141176 78.305882-78.305883v-234.917647c0-42.164706-36.141176-78.305882-78.305882-78.305882z" p-id="18968"></path></svg>