<?xml version="1.0" standalone="no"?><!DOCTYPE svg PUBLIC "-//W3C//DTD SVG 1.1//EN" "http://www.w3.org/Graphics/SVG/1.1/DTD/svg11.dtd"><svg class="icon" width="200px" height="200.00px" viewBox="0 0 1024 1024" version="1.1" xmlns="http://www.w3.org/2000/svg"><path d="M463.811765 951.717647c242.850635 0 439.717647-196.867012 439.717647-439.717647s-196.867012-439.717647-439.717647-439.717647S24.094118 269.149365 24.094118 512s196.867012 439.717647 439.717647 439.717647zM277.461835 305.904941c0.048188-5.650071 4.638118-10.053271 10.282165-10.05327h89.979482a40.815435 40.815435 0 0 1-2.975623-15.347953v-25.58193c0-2.825035 2.288941-5.113976 5.12-5.113976h56.271812a20.461929 20.461929 0 0 1 40.929882 0h56.271812c2.831059 0 5.12 2.288941 5.12 5.12v25.575906c0 5.4272-1.060141 10.607435-2.981647 15.347953h100.9664c5.240471 0 9.607529 3.806871 10.05327 9.035294 4.005647 46.772706 18.721129 262.686118-41.731012 348.882823-59.771482 85.214871-298.989929 66.704565-355.9424 60.982212-6.384941-0.638494-10.396612-6.981271-8.649788-13.155388 33.081224-117.0432 36.851953-345.184376 37.285647-395.685647z" fill="#BFBFBF" opacity=".16" /><path d="M48.188235 870.881882m-48.188235 0a48.188235 48.188235 0 1 0 96.376471 0 48.188235 48.188235 0 1 0-96.376471 0Z" fill="#BFBFBF" opacity=".32" /><path d="M903.529412 265.035294m-30.117647 0a30.117647 30.117647 0 1 0 60.235294 0 30.117647 30.117647 0 1 0-60.235294 0Z" fill="#BFBFBF" opacity=".32" /><path d="M24.094118 289.129412m-24.094118 0a24.094118 24.094118 0 1 0 48.188235 0 24.094118 24.094118 0 1 0-48.188235 0Z" fill="#BFBFBF" opacity=".32" /><path d="M837.270588 192.752941m-18.070588 0a18.070588 18.070588 0 1 0 36.141176 0 18.070588 18.070588 0 1 0-36.141176 0Z" fill="#BFBFBF" opacity=".32" /><path d="M374.747859 260.035765H277.546165a20.461929 20.461929 0 0 0-20.46193 20.461929v337.438118c17.588706-119.591153 20.040282-271.902118 20.383624-312.030871 0.048188-5.650071 4.638118-10.059294 10.288188-10.059294h89.967435a40.809412 40.809412 0 0 1-2.975623-15.347953V260.035765zM535.479718 295.845647a40.809412 40.809412 0 0 0 2.975623-15.347953V260.035765h107.435671a20.461929 20.461929 0 0 1 20.461929 20.461929v491.122447a20.461929 20.461929 0 0 1-20.461929 20.467953H277.546165a20.461929 20.461929 0 0 1-20.46193-20.467953v-56.079059c68.770635 6.318682 290.472659 19.811388 347.690165-61.777317 60.452141-86.196706 45.736659-302.104094 41.737035-348.882824-0.445741-5.228424-4.8128-9.035294-10.059294-9.035294H535.479718z" fill="#BFBFBF" opacity=".2" /><path d="M277.552188 717.233694v28.810541a20.461929 20.461929 0 0 0 20.46193 20.46193h327.420988a20.461929 20.461929 0 0 0 20.461929-20.46193V515.270776c-5.957271 53.970824-18.082635 105.652706-41.116611 138.492989-52.392659 74.709835-242.706071 69.698259-327.228236 63.469929z" fill="#BFBFBF" opacity=".32" /><path d="M644.559812 527.468424c-6.396988 49.423059-18.359718 95.804235-39.6288 126.132705-35.725553 50.940988-135.583624 64.813176-222.298353 66.511812 96.8704-41.887624 147.787294-110.351059 146.931953-139.38447 88.226635-3.553882 109.754729-35.303906 114.9952-53.260047z" fill="#BFBFBF" opacity=".24" /><path d="M436.145694 249.801788h-56.277835a5.12 5.12 0 0 0-5.12 5.12v25.575906a40.929882 40.929882 0 0 0 40.929882 40.929882H497.543529a40.923859 40.923859 0 0 0 40.923859-40.929882v-25.575906a5.12 5.12 0 0 0-5.12-5.12h-56.271812a20.461929 20.461929 0 1 0-40.923858 0z m8.185977 0h24.551905a12.275953 12.275953 0 1 0-24.551905 0z" fill="#BFBFBF" opacity=".56" /><path d="M383.036235 450.258824m-24.094117 0a24.094118 24.094118 0 1 0 48.188235 0 24.094118 24.094118 0 1 0-48.188235 0Z" fill="#BFBFBF" opacity=".64" /><path d="M527.600941 450.258824m-24.094117 0a24.094118 24.094118 0 1 0 48.188235 0 24.094118 24.094118 0 1 0-48.188235 0Z" fill="#BFBFBF" opacity=".64" /><path d="M415.623529 524.047059a12.047059 12.047059 0 0 1 12.047059-12.047059h60.235294a12.047059 12.047059 0 1 1 0 24.094118H427.670588a12.047059 12.047059 0 0 1-12.047059-12.047059z" fill="#BFBFBF" opacity=".64" /></svg>