<svg t="1658557022064" class="icon" viewBox="0 0 1024 1024" version="1.1" xmlns="http://www.w3.org/2000/svg" p-id="16909" width="200" height="200"><path d="M893.155556 642.844444v-68.266666c0-22.755556-5.688889-39.822222-22.755556-51.2-11.377778-11.377778-34.133333-22.755556-51.2-22.755556H557.511111v-39.822222c79.644444-22.755556 136.533333-91.022222 136.533333-176.355556 0-102.4-79.644444-182.044444-182.044444-182.044444S329.955556 182.044444 329.955556 284.444444c0 85.333333 56.888889 153.6 136.533333 176.355556v34.133333H204.8c-22.755556 0-39.822222 11.377778-56.888889 28.444445-11.377778 11.377778-22.755556 34.133333-22.755555 51.2v73.955555c-51.2 22.755556-85.333333 73.955556-85.333334 130.844445 0 79.644444 62.577778 142.222222 142.222222 142.222222s142.222222-62.577778 142.222223-142.222222c0-68.266667-45.511111-119.466667-108.088889-136.533334v-45.511111-11.377777h250.311111v56.888888c-56.888889 17.066667-96.711111 73.955556-96.711111 136.533334 0 79.644444 62.577778 142.222222 142.222222 142.222222s142.222222-62.577778 142.222222-142.222222c0-62.577778-39.822222-113.777778-96.711111-136.533334v-56.888888h244.622222v56.888888c-56.888889 17.066667-96.711111 73.955556-96.711111 136.533334 0 79.644444 62.577778 142.222222 142.222222 142.222222s142.222222-62.577778 142.222223-142.222222c0-62.577778-39.822222-113.777778-96.711111-136.533334zM233.244444 779.377778c0 28.444444-22.755556 51.2-51.2 51.2s-51.2-22.755556-51.2-51.2 22.755556-51.2 51.2-51.2 51.2 22.755556 51.2 51.2zM420.977778 284.444444c0-51.2 39.822222-91.022222 91.022222-91.022222s91.022222 39.822222 91.022222 91.022222S563.2 375.466667 512 375.466667 420.977778 335.644444 420.977778 284.444444zM512 830.577778c-28.444444 0-51.2-22.755556-51.2-51.2s22.755556-51.2 51.2-51.2 51.2 22.755556 51.2 51.2-22.755556 51.2-51.2 51.2z m335.644444 0c-28.444444 0-51.2-22.755556-51.2-51.2s22.755556-51.2 51.2-51.2 51.2 22.755556 51.2 51.2-22.755556 51.2-51.2 51.2z" p-id="16910"></path></svg>