<svg t="1637318364928" class="icon" viewBox="0 0 1024 1024" version="1.1" xmlns="http://www.w3.org/2000/svg" p-id="4669" width="200" height="200"><path d="M565.394286 250.148571h112.932571c135.68 0 201.874286 72.411429 201.508572 221.037715V650.24c0 141.897143-87.552 229.449143-229.814858 229.449143H373.76c-141.604571 0-229.449143-87.478857-229.449143-229.814857V373.686857c0-152.210286 67.657143-229.449143 201.142857-229.449143h58.148572a108.982857 108.982857 0 0 1 87.113143 42.276572l32.402285 43.008c10.24 12.873143 25.746286 20.626286 42.276572 20.626285zM353.865143 657.554286h316.708571c14.043429 0 25.307429-13.165714 25.307429-29.037715 0-16.237714-11.264-29.037714-25.307429-29.037714h-316.708571c-14.409143 0-25.673143 12.8-25.673143 29.037714 0 15.872 11.264 29.037714 25.6 29.037715z" p-id="4670"></path></svg>