<?xml version="1.0" standalone="no"?><!DOCTYPE svg PUBLIC "-//W3C//DTD SVG 1.1//EN" "http://www.w3.org/Graphics/SVG/1.1/DTD/svg11.dtd"><svg class="icon" width="200px" height="200.00px" viewBox="0 0 1024 1024" version="1.1" xmlns="http://www.w3.org/2000/svg"><path d="M256 0h512c140.8 0 256 115.2 256 256v512c0 140.8-115.2 256-256 256H256c-140.8 0-256-115.2-256-256V256c0-140.8 115.2-256 256-256z" fill="#A170FF" /><path d="M793.6 198.4H620.8c-25.6 0-38.4 19.2-38.4 38.4s19.2 38.4 38.4 38.4h64L608 358.4c-44.8-25.6-96-44.8-147.2-44.8-140.8 0-256 115.2-256 256s115.2 256 256 256 256-115.2 256-256c0-57.6-19.2-108.8-51.2-147.2l70.4-70.4v51.2c0 25.6 19.2 38.4 38.4 38.4 25.6 0 38.4-19.2 38.4-38.4V224c6.4-12.8-6.4-25.6-19.2-25.6z m-332.8 544c-96 0-172.8-76.8-172.8-172.8s76.8-172.8 172.8-172.8c96 0 172.8 76.8 172.8 172.8 0 96-76.8 172.8-172.8 172.8z" fill="#FFFFFF" /></svg>