<?xml version="1.0" standalone="no"?><!DOCTYPE svg PUBLIC "-//W3C//DTD SVG 1.1//EN" "http://www.w3.org/Graphics/SVG/1.1/DTD/svg11.dtd"><svg class="icon" width="200px" height="200.00px" viewBox="0 0 1024 1024" version="1.1" xmlns="http://www.w3.org/2000/svg"><path d="M0 0m256 0l512 0q256 0 256 256l0 512q0 256-256 256l-512 0q-256 0-256-256l0-512q0-256 256-256Z" fill="#C1C1C1" /><path d="M520.768 192.384a192.32 192.32 0 0 0-146.24 56.32 208.448 208.448 0 0 0-53.44 151.36H408.96a151.552 151.552 0 0 1 22.656-89.92A92.16 92.16 0 0 1 512 272a96.512 96.512 0 0 1 73.152 26.368 105.28 105.28 0 0 1 0 136.064l-14.656 16.832a429.952 429.952 0 0 0-92.864 108.928c-12.16 26.048-17.92 54.656-16.832 83.392v14.656h90.688v-14.656a121.6 121.6 0 0 1 13.184-58.496c8.832-17.344 20.992-32.768 35.84-45.376 25.664-21.504 50.112-44.416 73.152-68.736 21.312-30.912 32.064-67.84 30.72-105.344a161.536 161.536 0 0 0-51.2-125.824 185.728 185.728 0 0 0-132.416-47.488z" fill="#FFFFFF" /><path d="M505.408 704.384h-1.28 1.28z m-1.472 0h0.192z m-60.672 59.2a60.672 60.672 0 0 1 60.864-59.2" fill="#FFFFFF" /><path d="M482.112 708.416a60.672 60.672 0 0 0-38.848 55.168v2.944a62.208 62.208 0 0 0 37.568 58.24c7.552 3.2 15.68 4.8 23.872 4.672a62.08 62.08 0 0 0 43.904-17.536 63.68 63.68 0 0 0 18.24-45.376 60.736 60.736 0 0 0-59.136-62.208h-3.584a60.672 60.672 0 0 0-22.016 4.096z" fill="#FFFFFF" /></svg>