<?xml version="1.0" standalone="no"?><!DOCTYPE svg PUBLIC "-//W3C//DTD SVG 1.1//EN" "http://www.w3.org/Graphics/SVG/1.1/DTD/svg11.dtd"><svg class="icon" width="200px" height="200.00px" viewBox="0 0 1024 1024" version="1.1" xmlns="http://www.w3.org/2000/svg"><path d="M256 0h512c140.8 0 256 115.2 256 256v512c0 140.8-115.2 256-256 256H256c-140.8 0-256-115.2-256-256V256c0-140.8 115.2-256 256-256z" fill="#FF9390" /><path d="M576 185.6C435.2 185.6 313.6 300.8 313.6 448c0 51.2 12.8 102.4 38.4 140.8l-38.4 38.4-38.4-38.4c-12.8-12.8-38.4-12.8-57.6 0-12.8 12.8-12.8 38.4 0 57.6l38.4 32-44.8 44.8c-12.8 12.8-12.8 38.4 0 57.6 12.8 12.8 38.4 12.8 57.6 0l44.8-44.8 32 32c12.8 12.8 38.4 12.8 57.6 0 12.8-12.8 12.8-38.4 0-57.6l-32-32 38.4-38.4c44.8 44.8 102.4 64 166.4 64 140.8 0 262.4-115.2 262.4-262.4 0-140.8-121.6-256-262.4-256z m0 441.6c-102.4 0-185.6-83.2-185.6-185.6C390.4 339.2 473.6 256 576 256c102.4 0 185.6 83.2 185.6 185.6 0 102.4-83.2 185.6-185.6 185.6z" fill="#FFFFFF" /></svg>