<svg t="1658556839933" class="icon" viewBox="0 0 1024 1024" version="1.1" xmlns="http://www.w3.org/2000/svg" p-id="14666" width="200" height="200"><path d="M563.2 85.333333c-39.822222 0-68.266667 17.066667-68.266667 62.577778L512 438.044444c0 34.133333 34.133333 62.577778 73.955556 62.577778l295.822222-17.066666c39.822222 0 62.577778-34.133333 56.888889-73.955556C910.222222 227.555556 750.933333 91.022222 563.2 85.333333z m28.444444 335.644445l-17.066666-256c136.533333 11.377778 250.311111 108.088889 284.444444 238.933333l-267.377778 17.066667z" p-id="14667"></path><path d="M728.177778 546.133333l-244.622222 11.377778c-5.688889 0-11.377778-5.688889-11.377778-11.377778l-22.755556-244.622222c0-51.2-51.2-68.266667-96.711111-62.577778-164.977778 39.822222-284.444444 182.044444-284.444444 352.711111 0 62.577778 17.066667 125.155556 45.511111 176.355556 79.644444 142.222222 250.311111 216.177778 409.6 182.044444 159.288889-34.133333 273.066667-176.355556 284.444444-335.644444 0-39.822222-34.133333-73.955556-79.644444-68.266667z m-227.555556 318.577778c-119.466667 28.444444-250.311111-34.133333-307.2-136.533333-22.755556-45.511111-34.133333-91.022222-34.133333-136.533334 0-119.466667 85.333333-227.555556 204.8-261.688888l17.066667 221.866666c0 28.444444 17.066667 56.888889 39.822222 73.955556 22.755556 17.066667 45.511111 22.755556 62.577778 22.755555h5.688888l227.555556-11.377777c-22.755556 108.088889-102.4 199.111111-216.177778 227.555555z" p-id="14668"></path></svg>