<svg t="1658556862985" class="icon" viewBox="0 0 1024 1024" version="1.1" xmlns="http://www.w3.org/2000/svg" p-id="14946" width="200" height="200"><path d="M807.822222 147.911111h-170.666666c-45.511111 0-85.333333 39.822222-85.333334 85.333333v170.666667c0 45.511111 39.822222 85.333333 85.333334 85.333333h170.666666c45.511111 0 85.333333-39.822222 85.333334-85.333333v-170.666667c0-45.511111-39.822222-85.333333-85.333334-85.333333z m0 256h-170.666666v-170.666667h170.666666v170.666667zM381.155556 147.911111h-170.666667c-45.511111 0-85.333333 39.822222-85.333333 85.333333v170.666667c0 45.511111 39.822222 85.333333 85.333333 85.333333h170.666667c45.511111 0 85.333333-39.822222 85.333333-85.333333v-170.666667c0-45.511111-39.822222-85.333333-85.333333-85.333333z m0 256h-170.666667v-170.666667h170.666667v170.666667zM381.155556 574.577778h-170.666667c-45.511111 0-85.333333 39.822222-85.333333 85.333333v170.666667c0 45.511111 39.822222 85.333333 85.333333 85.333333h170.666667c45.511111 0 85.333333-39.822222 85.333333-85.333333v-170.666667c0-45.511111-39.822222-85.333333-85.333333-85.333333z m5.688888 256h-170.666666v-170.666667h170.666666v170.666667zM807.822222 574.577778h-170.666666c-45.511111 0-85.333333 39.822222-85.333334 85.333333v170.666667c0 45.511111 39.822222 85.333333 85.333334 85.333333h170.666666c45.511111 0 85.333333-39.822222 85.333334-85.333333v-170.666667c0-45.511111-39.822222-85.333333-85.333334-85.333333z m0 256h-170.666666v-170.666667h170.666666v170.666667z" p-id="14947"></path></svg>