<svg t="1658556908171" class="icon" viewBox="0 0 1024 1024" version="1.1" xmlns="http://www.w3.org/2000/svg" p-id="15505" width="200" height="200"><path d="M637.155556 739.555556H386.844444c-22.755556 0-45.511111-22.755556-45.511111-45.511112s22.755556-45.511111 45.511111-45.511111h250.311112c22.755556 0 45.511111 22.755556 45.511111 45.511111s-22.755556 45.511111-45.511111 45.511112z" p-id="15506"></path><path d="M898.844444 335.644444L568.888889 85.333333c-34.133333-22.755556-79.644444-22.755556-113.777778 0L125.155556 335.644444c-28.444444 17.066667-39.822222 45.511111-39.822223 73.955556v449.422222c0 56.888889 45.511111 96.711111 96.711111 96.711111h659.911112c56.888889 0 96.711111-45.511111 96.711111-96.711111V409.6c0-28.444444-17.066667-56.888889-39.822223-73.955556z m-51.2 523.377778H182.044444V409.6L512 164.977778l335.644444 244.622222v449.422222z" p-id="15507"></path></svg>