<svg t="1637319285014" class="icon" viewBox="0 0 1024 1024" version="1.1" xmlns="http://www.w3.org/2000/svg" p-id="18020" width="200" height="200"><path d="M290.0992 1024h443.7504C907.4176 1024 1024 902.2464 1024 721.0496V302.9504C1024 121.7536 907.4176 0 733.9008 0H290.0992C116.5312 0 0 121.7536 0 302.9504v418.0992C0 902.2464 116.5824 1024 290.0992 1024zM332.8 460.8A128.1024 128.1024 0 0 1 204.8 332.8C204.8 262.2464 262.144 204.8 332.7488 204.8a128.1536 128.1536 0 0 1 127.9488 128c0 70.5536-57.3952 128-128 128z m579.6864 201.4208c17.152 43.9808 8.192 96.768-10.0864 140.288-21.76 51.8144-63.3344 91.0336-115.712 108.1344a231.68 231.68 0 0 1-72.0896 10.9568H283.136c-42.9568 0-80.9472-10.2912-112.128-29.4912-19.456-12.032-22.9376-39.8336-8.448-57.856 24.1664-30.1056 48.0768-60.3136 72.192-90.8288 45.8752-58.368 76.8-75.264 111.2064-60.416 13.9776 6.144 27.9552 15.36 42.3936 25.088 38.4 26.112 91.8016 61.952 162.1504 23.04 48.128-26.9824 76.032-73.216 100.352-113.4592l0.4096-0.6656 5.12-8.4992c8.192-13.5168 16.2304-26.8288 25.344-39.1168 11.4176-15.36 53.76-63.488 108.6976-29.184 34.9184 21.504 64.3584 50.688 95.7952 81.92 11.9808 11.9296 20.5312 25.4976 26.2656 40.0896z" p-id="18021"></path></svg>