<?xml version="1.0" standalone="no"?><!DOCTYPE svg PUBLIC "-//W3C//DTD SVG 1.1//EN" "http://www.w3.org/Graphics/SVG/1.1/DTD/svg11.dtd"><svg class="icon" width="200px" height="200.00px" viewBox="0 0 1024 1024" version="1.1" xmlns="http://www.w3.org/2000/svg"><path d="M487.905882 951.717647c242.850635 0 439.717647-196.867012 439.717647-439.717647s-196.867012-439.717647-439.717647-439.717647S48.188235 269.149365 48.188235 512s196.867012 439.717647 439.717647 439.717647z m180.705883-422.610823c0 125.891765-114.615718 227.9424-256 227.9424-9.3184 0-18.528376-0.445741-27.587765-1.307106-17.155012-1.6384-34.653365 1.481788-49.055624 10.944753l-62.241129 40.869647c-7.812518 5.132047-18.239247-0.2048-18.648847-9.547294l-2.602165-60.066636c-0.879435-20.202918-11.324235-38.5024-26.039717-52.380612C183.151435 644.740518 156.611765 589.685459 156.611765 529.112847 156.611765 403.227106 271.227482 301.176471 412.611765 301.176471S668.611765 403.227106 668.611765 529.106824z" fill="#BFBFBF" opacity=".16" /><path d="M587.667576 695.440565a245.922635 245.922635 0 0 0 60.608753-3.15633c1.511906-0.271059 3.078024 0.024094 4.373083 0.855341l54.241882 34.761789c11.396518 7.300518 26.479435-0.054212 27.738353-13.534871l5.409129-57.789741c0.162635-1.734776 1.072188-3.312941 2.475671-4.348988 46.881129-34.563012 76.6976-86.497882 76.6976-144.564706 0-104.062494-95.737976-188.416-213.835294-188.416-24.2688 0-47.585882 3.559906-69.330824 10.119529 79.034729 38.803576 132.577882 113.706165 132.577883 199.740236 0 65.614306-31.135624 124.741271-80.956236 166.333741z" fill="#BFBFBF" opacity=".4" /><path d="M331.294118 512m-24.094118 0a24.094118 24.094118 0 1 0 48.188235 0 24.094118 24.094118 0 1 0-48.188235 0Z" fill="#BFBFBF" opacity=".64" /><path d="M493.929412 512m-24.094118 0a24.094118 24.094118 0 1 0 48.188235 0 24.094118 24.094118 0 1 0-48.188235 0Z" fill="#BFBFBF" opacity=".64" /><path d="M363.544094 576.132518a9.035294 9.035294 0 0 1 12.047059 4.258635c5.035671 10.541176 17.889882 18.950024 34.008847 18.950023 16.124988 0 28.9792-8.408847 34.014871-18.950023a9.035294 9.035294 0 0 1 16.305694 7.788423C451.463529 605.888753 431.646118 617.411765 409.6 617.411765c-22.046118 0-41.863529-11.523012-50.314541-29.232189a9.035294 9.035294 0 0 1 4.258635-12.047058z" fill="#BFBFBF" opacity=".64" /><path d="M222.930824 325.632a9.035294 9.035294 0 0 1-12.775906 0l-29.816471-29.816471a9.035294 9.035294 0 1 1 12.775906-12.769882l29.816471 29.816471a9.035294 9.035294 0 0 1 0 12.769882zM305.404988 287.0272a9.035294 9.035294 0 0 1-6.150023-11.197741l12.589176-43.309177a9.035294 9.035294 0 1 1 17.353788 5.041694l-12.589176 43.309177a9.035294 9.035294 0 0 1-11.203765 6.156047zM262.752376 303.507576a9.035294 9.035294 0 0 1-11.0592-6.403011l-19.437929-72.89073a9.035294 9.035294 0 1 1 17.468235-4.656188l19.431906 72.890729a9.035294 9.035294 0 0 1-6.403012 11.0592z" fill="#BFBFBF" opacity=".56" /><path d="M48.188235 778.962824m-48.188235 0a48.188235 48.188235 0 1 0 96.376471 0 48.188235 48.188235 0 1 0-96.376471 0Z" fill="#BFBFBF" opacity=".4" /><path d="M927.623529 265.035294m-30.117647 0a30.117647 30.117647 0 1 0 60.235294 0 30.117647 30.117647 0 1 0-60.235294 0Z" fill="#BFBFBF" opacity=".4" /><path d="M48.188235 289.129412m-24.094117 0a24.094118 24.094118 0 1 0 48.188235 0 24.094118 24.094118 0 1 0-48.188235 0Z" fill="#BFBFBF" opacity=".4" /><path d="M861.364706 192.752941m-18.070588 0a18.070588 18.070588 0 1 0 36.141176 0 18.070588 18.070588 0 1 0-36.141176 0Z" fill="#BFBFBF" opacity=".4" /></svg>