<svg t="1638932814802" class="icon" viewBox="0 0 1024 1024" version="1.1" xmlns="http://www.w3.org/2000/svg" p-id="7430" width="200" height="200"><path d="M512 0C227.555556 0 0 227.555556 0 512s227.555556 512 512 512 512-227.555556 512-512-227.555556-512-512-512z m0 955.733333c-244.622222 0-443.733333-199.111111-443.733333-443.733333S267.377778 68.266667 512 68.266667s443.733333 199.111111 443.733333 443.733333-199.111111 443.733333-443.733333 443.733333z" p-id="7431"></path><path d="M676.977778 494.933333c-5.688889 5.688889-11.377778 5.688889-17.066667 5.688889-5.688889 0-11.377778 0-17.066667-5.688889-5.688889-5.688889-5.688889-11.377778-5.688888-17.066666 0-5.688889 0-11.377778 5.688888-17.066667l39.822223-39.822222c11.377778-17.066667 22.755556-39.822222 17.066666-62.577778 0-22.755556-11.377778-45.511111-28.444444-56.888889-34.133333-34.133333-79.644444-39.822222-108.088889-11.377778l-102.4 113.777778c-5.688889 22.755556-17.066667 45.511111-11.377778 68.266667 0 22.755556 11.377778 45.511111 28.444445 56.888889 5.688889 5.688889 5.688889 11.377778 5.688889 17.066666 0 5.688889 0 11.377778-5.688889 17.066667-11.377778 5.688889-28.444444 5.688889-34.133334 0-22.755556-22.755556-39.822222-56.888889-39.822222-91.022222 0-34.133333 11.377778-68.266667 28.444445-96.711111l102.4-113.777778c45.511111-51.2 119.466667-45.511111 170.666666 11.377778 22.755556 22.755556 34.133333 56.888889 39.822222 91.022222S739.555556 426.666667 716.8 455.111111l-39.822222 39.822222z" p-id="7432"></path><path d="M347.022222 529.066667c5.688889-5.688889 22.755556-5.688889 28.444445 0 5.688889 5.688889 11.377778 22.755556 0 28.444444l-39.822223 39.822222c-11.377778 17.066667-22.755556 39.822222-17.066666 62.577778 0 22.755556 11.377778 45.511111 28.444444 56.888889 34.133333 34.133333 79.644444 39.822222 108.088889 11.377778l102.4-113.777778c11.377778-17.066667 22.755556-39.822222 17.066667-62.577778 0-22.755556-11.377778-45.511111-28.444445-56.888889v-17.066666c0-5.688889 0-11.377778 5.688889-17.066667l5.688889-5.688889h11.377778l5.688889 5.688889c22.755556 22.755556 39.822222 56.888889 39.822222 91.022222 0 34.133333-11.377778 68.266667-28.444444 96.711111l-102.4 113.777778c-45.511111 51.2-119.466667 45.511111-170.666667-11.377778-22.755556-22.755556-34.133333-56.888889-39.822222-91.022222 0-34.133333 11.377778-68.266667 28.444444-91.022222l45.511111-39.822222z" p-id="7433"></path></svg>