<svg t="1638932704401" class="icon" viewBox="0 0 1024 1024" version="1.1" xmlns="http://www.w3.org/2000/svg" p-id="5019" width="200" height="200"><path d="M716.032 624.96l-46.08-44.992L760.96 488.96c37.376-39.296 58.24-82.304 62.528-128.96 4.352-46.656-8.832-86.656-39.488-120-33.344-30.72-73.344-43.84-120-39.488-46.656 4.352-89.6 25.152-128.96 62.464L444.032 353.984l-44.992-46.016L488.96 217.984c52.672-49.984 111.04-77.184 175.04-81.536 64-4.288 118.976 15.168 164.992 58.496 43.264 46.08 62.784 100.992 58.432 164.992-4.288 64-31.488 122.368-81.472 175.04l-89.984 89.984z m-91.008 91.008l-90.048 90.048c-52.672 49.984-110.976 77.184-174.976 81.536-64 4.288-119.04-15.232-164.992-58.56-43.328-45.952-62.848-100.928-58.496-164.928 4.288-64 31.488-122.368 81.472-175.04l90.048-90.048 46.016 44.992L263.04 535.04c-37.376 39.36-58.24 82.368-62.528 129.024-4.352 46.656 8.832 86.656 39.488 120 33.344 30.72 73.344 43.84 120 39.488 46.656-4.352 89.6-25.216 129.024-62.528l91.008-90.944 44.992 46.016z m0-361.984l44.992 44.992-271.04 271.04-44.992-44.992 271.04-271.04z" p-id="5020"></path></svg>