<svg t="1637319372760" class="icon" viewBox="0 0 1024 1024" version="1.1" xmlns="http://www.w3.org/2000/svg" p-id="18548" width="200" height="200"><path d="M533.333333 85.333333C285.952 85.333333 85.333333 285.952 85.333333 533.333333S285.952 981.333333 533.333333 981.333333 981.333333 780.714667 981.333333 533.333333 780.714667 85.333333 533.333333 85.333333z m176.512 585.685334l-28.586666 38.997333a8.021333 8.021333 0 0 1-11.221334 1.706667l-165.418666-120.576a7.936 7.936 0 0 1-3.285334-6.528V309.333333c0-4.394667 3.584-8.021333 8.021334-8.021333h48.085333c4.394667 0 7.978667 3.626667 7.978667 8.021333v247.466667l142.592 103.125333a7.850667 7.850667 0 0 1 1.834666 11.093334z" p-id="18549"></path></svg>