<?xml version="1.0" standalone="no"?><!DOCTYPE svg PUBLIC "-//W3C//DTD SVG 1.1//EN" "http://www.w3.org/Graphics/SVG/1.1/DTD/svg11.dtd"><svg t="1637233937104" class="icon" viewBox="0 0 1024 1024" version="1.1" xmlns="http://www.w3.org/2000/svg" p-id="4327" xmlns:xlink="http://www.w3.org/1999/xlink" width="128" height="128"><defs><style type="text/css"></style></defs><path d="M512 0C230.4 8.533333 8.533333 230.4 0 512c8.533333 281.6 230.4 503.466667 512 512 281.6-8.533333 503.466667-230.4 512-512-8.533333-281.6-230.4-503.466667-512-512z m332.8 512c0 42.666667-34.133333 76.8-76.8 76.8H256c-17.066667 0-34.133333-8.533333-51.2-25.6-17.066667-8.533333-25.6-34.133333-25.6-51.2 0-42.666667 34.133333-76.8 76.8-76.8h512c42.666667 0 76.8 34.133333 76.8 76.8z" fill="#FF4D4F" p-id="4328"></path></svg>