<?xml version="1.0" standalone="no"?><!DOCTYPE svg PUBLIC "-//W3C//DTD SVG 1.1//EN" "http://www.w3.org/Graphics/SVG/1.1/DTD/svg11.dtd"><svg t="1638427790701" class="icon" viewBox="0 0 1024 1024" version="1.1" xmlns="http://www.w3.org/2000/svg" p-id="3333" xmlns:xlink="http://www.w3.org/1999/xlink" width="200" height="200"><defs><style type="text/css"></style></defs><path d="M680.658824 331.294118h30.117647c-30.117647-138.541176-174.682353-240.941176-343.341177-240.941177C186.729412 96.376471 30.117647 222.870588 30.117647 385.505882c0 96.376471 48.188235 168.658824 138.541177 228.894118l-36.141177 102.4 120.470588-60.235294c6.023529 6.023529 12.047059 6.023529 18.070589 6.023529 36.141176 6.023529 66.258824 12.047059 96.37647 12.047059h30.117647c0-24.094118-6.023529-48.188235-6.023529-72.282353 0-150.588235 126.494118-271.058824 289.129412-271.058823zM499.952941 240.941176c24.094118 0 42.164706 18.070588 42.164706 42.164706 0 24.094118-18.070588 42.164706-42.164706 42.164706-24.094118 0-48.188235-18.070588-48.188235-42.164706-6.023529-24.094118 24.094118-42.164706 48.188235-42.164706z m-240.941176 84.329412c-24.094118 0-48.188235-18.070588-48.188236-42.164706 0-24.094118 24.094118-42.164706 48.188236-42.164706s42.164706 18.070588 42.164706 42.164706c0 24.094118-18.070588 42.164706-42.164706 42.164706z" fill="#4FD96A" p-id="3334"></path><path d="M704.752941 349.364706c-162.635294 0-289.129412 114.447059-289.129412 246.964706 0 138.541176 126.494118 246.964706 289.129412 246.964706 36.141176 0 66.258824-6.023529 102.4-18.070589l96.376471 54.211765-30.117647-84.329412c66.258824-54.211765 120.470588-120.470588 120.470588-198.77647 0-132.517647-138.541176-246.964706-289.129412-246.964706zM608.376471 554.164706c-18.070588 0-30.117647-12.047059-30.117647-30.117647s18.070588-36.141176 36.141176-36.141177c24.094118 0 42.164706 18.070588 42.164706 36.141177-6.023529 18.070588-18.070588 30.117647-48.188235 30.117647z m186.729411 0c-18.070588 0-36.141176-18.070588-36.141176-36.141177s18.070588-36.141176 36.141176-36.141176c24.094118 0 42.164706 18.070588 42.164706 36.141176 6.023529 24.094118-12.047059 36.141176-42.164706 36.141177z" fill="#4FD96A" p-id="3335"></path></svg>