<svg t="1658556927993" class="icon" viewBox="0 0 1024 1024" version="1.1" xmlns="http://www.w3.org/2000/svg" p-id="15786" width="200" height="200"><path d="M705.422222 284.444444c17.066667-17.066667 45.511111-17.066667 62.577778 0 17.066667 17.066667 17.066667 45.511111 0 62.577778l-193.422222 193.422222c-17.066667 22.755556-45.511111 22.755556-62.577778 5.688889L415.288889 449.422222 318.577778 546.133333c-17.066667 17.066667-45.511111 17.066667-62.577778 0-17.066667-17.066667-17.066667-45.511111 0-62.577777l130.844444-130.844445c17.066667-17.066667 45.511111-17.066667 68.266667 0l96.711111 96.711111L705.422222 284.444444z" p-id="15787"></path><path d="M927.288889 91.022222H96.711111c-22.755556 0-45.511111 22.755556-45.511111 45.511111s22.755556 45.511111 45.511111 45.511111v506.311112c0 51.2 39.822222 91.022222 91.022222 91.022222h233.244445l-108.088889 108.088889c-17.066667 17.066667-17.066667 45.511111 0 62.577777 17.066667 17.066667 45.511111 17.066667 62.577778 0L512 824.888889l130.844444 130.844444c17.066667 17.066667 45.511111 17.066667 62.577778 0 17.066667-17.066667 17.066667-45.511111 0-62.577777l-108.088889-108.088889h233.244445c51.2 0 91.022222-39.822222 91.022222-91.022223V187.733333c22.755556 0 45.511111-22.755556 45.511111-45.511111s-17.066667-51.2-39.822222-51.2z m-91.022222 603.022222H187.733333V187.733333h642.844445v506.311111z" p-id="15788"></path></svg>