<?xml version="1.0" standalone="no"?><!DOCTYPE svg PUBLIC "-//W3C//DTD SVG 1.1//EN" "http://www.w3.org/Graphics/SVG/1.1/DTD/svg11.dtd"><svg t="1637653132481" class="icon" viewBox="0 0 1024 1024" version="1.1" xmlns="http://www.w3.org/2000/svg" p-id="2632" xmlns:xlink="http://www.w3.org/1999/xlink" width="200" height="200"><defs><style type="text/css"></style></defs><path d="M844.8 384c13.568 0 26.624 5.5808 36.1984 15.5136 9.6256 9.9328 15.0016 23.3984 15.0016 37.4272v406.0672c0 14.08-5.376 27.5456-15.0016 37.4784a50.3296 50.3296 0 0 1-36.1984 15.5136h-665.6a50.3296 50.3296 0 0 1-36.1984-15.5136 53.9136 53.9136 0 0 1-15.0016-37.4784v-406.016c0-14.08 5.376-27.5456 15.0016-37.4784A50.3296 50.3296 0 0 1 179.2 384h665.6z m0 26.4704h-665.6c-6.5536 0-12.8 2.56-17.5616 7.2192a26.88 26.88 0 0 0-7.9872 17.7152L153.6 436.9408v406.0672c0 6.8096 2.5088 13.312 6.9632 18.176a25.2416 25.2416 0 0 0 17.152 8.2944H844.8a25.088 25.088 0 0 0 17.5616-7.168 26.88 26.88 0 0 0 7.9872-17.7152l0.0512-1.536V436.8896a26.9824 26.9824 0 0 0-6.9632-18.1248 25.2416 25.2416 0 0 0-17.152-8.2944H844.8zM716.8 719.4624a8.3456 8.3456 0 0 1 6.0416 2.56 8.9088 8.9088 0 0 1 2.5088 6.2464v52.992a9.0624 9.0624 0 0 1-2.56 6.1952 8.6016 8.6016 0 0 1-5.9904 2.6112H307.2a8.2432 8.2432 0 0 1-6.0416-2.56 8.8576 8.8576 0 0 1-2.5088-6.2464v-52.992a9.0624 9.0624 0 0 1 2.56-6.2464 8.5504 8.5504 0 0 1 5.9904-2.56h409.6zM358.4 604.672c2.2528 0 4.4544 0.9216 6.0416 2.56a9.0112 9.0112 0 0 1 2.5088 6.2976v52.9408c0 2.3552-0.9216 4.608-2.56 6.2464a8.3968 8.3968 0 0 1-5.9904 2.56H307.2a8.2432 8.2432 0 0 1-6.0416-2.56 8.9088 8.9088 0 0 1-2.5088-6.2464v-52.9408a9.0624 9.0624 0 0 1 2.56-6.2464 8.448 8.448 0 0 1 5.9904-2.56h51.2z m119.4496 0c2.304 0 4.4544 0.9216 6.0416 2.56a9.0112 9.0112 0 0 1 2.5088 6.2976v52.9408c0 2.3552-0.9216 4.608-2.5088 6.2464a8.3968 8.3968 0 0 1-6.0416 2.56h-51.2a8.3968 8.3968 0 0 1-6.0416-2.56 9.0112 9.0112 0 0 1-2.4576-6.2464v-52.9408c0-2.3552 0.8704-4.608 2.4576-6.2464a8.3968 8.3968 0 0 1 6.0416-2.56h51.2z m119.5008 0a8.192 8.192 0 0 1 5.9904 2.56 8.8576 8.8576 0 0 1 2.56 6.2976v52.9408a9.0624 9.0624 0 0 1-2.56 6.2464 8.448 8.448 0 0 1-5.9904 2.56h-51.2a8.2432 8.2432 0 0 1-6.0416-2.56 8.9088 8.9088 0 0 1-2.5088-6.2464v-52.9408a9.0624 9.0624 0 0 1 2.5088-6.2464 8.4992 8.4992 0 0 1 6.0416-2.56h51.2z m119.4496 0a8.2432 8.2432 0 0 1 6.0416 2.56 9.0112 9.0112 0 0 1 2.5088 6.2976v52.9408a9.0624 9.0624 0 0 1-2.56 6.2464 8.4992 8.4992 0 0 1-5.9904 2.56h-51.2a8.3968 8.3968 0 0 1-6.0416-2.56 9.0112 9.0112 0 0 1-2.5088-6.2464v-52.9408c0-2.3552 0.9216-4.608 2.56-6.2464a8.3968 8.3968 0 0 1 5.9904-2.56h51.2zM298.6496 498.7392a8.2944 8.2944 0 0 1 6.0416 2.56 8.8576 8.8576 0 0 1 2.5088 6.2976v52.9408a9.1136 9.1136 0 0 1-2.5088 6.2464 8.5504 8.5504 0 0 1-6.0416 2.56h-51.2a8.3456 8.3456 0 0 1-6.0416-2.56 8.8576 8.8576 0 0 1-2.4576-6.2464V507.5968a9.1136 9.1136 0 0 1 2.4576-6.2464 8.5504 8.5504 0 0 1 6.0416-2.56h51.2z m119.5008 0c2.2528 0 4.4032 0.9728 6.0416 2.56a8.96 8.96 0 0 1 2.4576 6.2976v52.9408a9.1136 9.1136 0 0 1-2.4576 6.2464 8.5504 8.5504 0 0 1-6.0416 2.56h-51.2a8.3456 8.3456 0 0 1-6.0416-2.56 8.8576 8.8576 0 0 1-2.5088-6.2464V507.5968a9.1136 9.1136 0 0 1 2.5088-6.2464 8.4992 8.4992 0 0 1 6.0416-2.56h51.2z m119.4496 0a8.2944 8.2944 0 0 1 6.0416 2.56 8.9088 8.9088 0 0 1 2.5088 6.2976v52.9408a9.1136 9.1136 0 0 1-2.56 6.2464 8.6016 8.6016 0 0 1-5.9904 2.56h-51.2a8.3456 8.3456 0 0 1-6.0416-2.56 8.8576 8.8576 0 0 1-2.5088-6.2464V507.5968a9.1136 9.1136 0 0 1 2.56-6.2464 8.4992 8.4992 0 0 1 5.9904-2.56h51.2z m119.4496 0c2.2528 0 4.4544 0.9728 6.0416 2.56a9.0112 9.0112 0 0 1 2.5088 6.2976v52.9408a9.1136 9.1136 0 0 1-2.5088 6.2464 8.6016 8.6016 0 0 1-6.0416 2.56h-51.2a8.2944 8.2944 0 0 1-5.9904-2.56 8.7552 8.7552 0 0 1-2.56-6.2464V507.5968a9.0624 9.0624 0 0 1 2.56-6.2464 8.4992 8.4992 0 0 1 5.9904-2.56h51.2z m119.5008 0c2.2528 0 4.4032 0.9728 5.9904 2.56a8.96 8.96 0 0 1 2.56 6.2976v52.9408a9.1136 9.1136 0 0 1-2.56 6.2464 8.5504 8.5504 0 0 1-5.9904 2.56h-51.2a8.3456 8.3456 0 0 1-6.0416-2.56 8.8576 8.8576 0 0 1-2.5088-6.2464V507.5968a9.0624 9.0624 0 0 1 2.5088-6.2464 8.5504 8.5504 0 0 1 6.0416-2.56h51.2zM631.296 298.6496c1.8432 0 3.584-0.512 5.0176-1.4336a8.2432 8.2432 0 0 0 3.1744-3.8912 7.68 7.68 0 0 0 0.2048-4.9152 8.0896 8.0896 0 0 0-2.7648-4.096L496.2304 172.544a8.96 8.96 0 0 0-11.1616 0L344.4224 284.2624a8.1408 8.1408 0 0 0-2.816 4.1472 7.68 7.68 0 0 0 0.256 4.9152 8.192 8.192 0 0 0 3.1744 3.8912 9.0112 9.0112 0 0 0 4.9152 1.4336h281.3952z" fill="#595959" p-id="2633"></path></svg>