<svg t="1658556949322" class="icon" viewBox="0 0 1024 1024" version="1.1" xmlns="http://www.w3.org/2000/svg" p-id="16067" width="200" height="200"><path d="M295.822222 420.977778c0-22.755556 22.755556-39.822222 45.511111-39.822222h341.333334c22.755556 0 45.511111 17.066667 45.511111 45.511111 0 22.755556-17.066667 45.511111-45.511111 45.511111H341.333333c-22.755556-5.688889-45.511111-28.444444-45.511111-51.2zM341.333333 551.822222c-22.755556 0-45.511111 17.066667-45.511111 45.511111 0 22.755556 17.066667 45.511111 45.511111 45.511111h125.155556c22.755556 0 45.511111-17.066667 45.511111-45.511111s-17.066667-45.511111-45.511111-45.511111H341.333333z" p-id="16068"></path><path d="M807.822222 170.666667H210.488889C142.222222 170.666667 85.333333 227.555556 85.333333 295.822222V910.222222c0 45.511111 51.2 73.955556 85.333334 45.511111l142.222222-108.088889h494.933333c68.266667 0 125.155556-56.888889 125.155556-125.155555V295.822222c0-68.266667-56.888889-125.155556-125.155556-125.155555z m51.2 551.822222c0 28.444444-22.755556 45.511111-45.511111 45.511111H312.888889c-17.066667 0-34.133333 5.688889-51.2 17.066667L170.666667 853.333333V295.822222c0-22.755556 17.066667-45.511111 45.511111-45.511111h597.333333c28.444444 0 45.511111 22.755556 45.511111 45.511111v426.666667z" p-id="16069"></path></svg>