<svg t="1638932878904" class="icon" viewBox="0 0 1024 1024" version="1.1" xmlns="http://www.w3.org/2000/svg" p-id="9709" width="200" height="200"><path d="M256.064 426.624c-46.912 0-85.312 38.4-85.312 85.312 0 46.976 38.4 85.376 85.312 85.376 46.976 0 85.376-38.4 85.376-85.376 0-46.912-38.4-85.312-85.376-85.312zM768.064 426.624c-46.912 0-85.312 38.4-85.312 85.312 0 46.976 38.4 85.376 85.312 85.376 46.976 0 85.376-38.4 85.376-85.376 0-46.912-38.4-85.312-85.376-85.312zM426.752 512c0-46.976 38.4-85.376 85.312-85.376 46.976 0 85.376 38.4 85.376 85.312 0 46.976-38.4 85.376-85.376 85.376-46.912 0-85.312-38.4-85.312-85.376z" p-id="9710"></path></svg>