<?xml version="1.0" standalone="no"?><!DOCTYPE svg PUBLIC "-//W3C//DTD SVG 1.1//EN" "http://www.w3.org/Graphics/SVG/1.1/DTD/svg11.dtd"><svg class="icon" width="200px" height="200.00px" viewBox="0 0 1024 1024" version="1.1" xmlns="http://www.w3.org/2000/svg"><path d="M462.167341 951.717647c242.844612 0 439.717647-196.867012 439.717647-439.717647s-196.873035-439.717647-439.717647-439.717647c-242.850635 0-439.717647 196.867012-439.717647 439.717647s196.867012 439.717647 439.717647 439.717647zM210.763294 700.656941V486.430118c0-4.421271 3.939388-9.312376 9.450918-9.312377h111.766588a41.911718 41.911718 0 0 1 41.917741 41.911718 27.943153 27.943153 0 0 0 27.943153 27.949176h121.078965a27.943153 27.943153 0 0 0 27.949176-27.949176 41.911718 41.911718 0 0 1 41.905694-41.911718h111.772612c5.035671 0 9.173835 4.222494 9.173835 9.312377v214.226823a55.886306 55.886306 0 0 1-55.886305 55.886306H266.6496a55.886306 55.886306 0 0 1-55.880282-55.886306z" fill="#BFBFBF" opacity=".16" /><path d="M323.674353 286.214024a24.094118 24.094118 0 0 0-21.648565 13.5168L214.4256 479.111529a9.276235 9.276235 0 0 1 5.722353-1.96367h111.760565a41.911718 41.911718 0 0 1 41.917741 41.911717A27.943153 27.943153 0 0 0 401.769412 546.996706H522.842353a27.943153 27.943153 0 0 0 27.949176-27.943153 41.911718 41.911718 0 0 1 41.905695-41.911718h111.772611c2.029929 0 3.909271 0.650541 5.439247 1.752847l-91.87087-179.561411a24.094118 24.094118 0 0 0-21.443765-13.119247h-272.926118z" fill="#BFBFBF" opacity=".4" /><path d="M598.702682 151.268894c1.270965 4.746541 1.4336 11.047153 0.590306 16.649035a16.311718 16.311718 0 0 0 29.226165-13.384282l-0.602353-2.2528a18.624753 18.624753 0 0 0-22.811106-13.173459l-10.97487 2.945506c2.005835 2.505788 3.614118 5.644047 4.571858 9.216zM571.711247 158.497129a25.202447 25.202447 0 0 1-0.644518-10.270117l-10.9568 2.933459a18.630776 18.630776 0 0 0-13.167435 22.817129l0.602353 2.246776a16.299671 16.299671 0 0 0 32.003012-2.98767c-3.541835-4.427294-6.565647-9.980988-7.830588-14.739577zM855.341176 192.758965a18.070588 18.070588 0 1 1-36.141176 0 18.070588 18.070588 0 0 1 36.141176 0zM933.647059 265.041318a30.117647 30.117647 0 1 1-60.235294 0 30.117647 30.117647 0 0 1 60.235294 0zM96.376471 814.465506a48.188235 48.188235 0 0 1-48.188236 48.188235 48.188235 48.188235 0 1 1 48.188236-48.188235zM24.094118 313.229553a24.094118 24.094118 0 1 0 0-48.188235 24.094118 24.094118 0 0 0 0 48.188235z" fill="#BFBFBF" opacity=".32" /><path d="M583.059576 177.073694c1.463718 4.487529 2.849129 8.944941 4.156236 13.378259l11.553129-3.391247a470.618353 470.618353 0 0 0-2.770823-9.09553c-1.048094 1.6384-2.307012 2.770824-3.758683 3.15633-2.656376 0.710776-5.969318-1.036047-9.179859-4.047812zM613.839812 262.625882a400.636988 400.636988 0 0 0-5.812706-38.165082l-11.812141 2.379294c2.553976 12.685553 4.415247 25.045835 5.644047 37.008565l11.9808-1.2288zM612.924235 339.937882c1.734776-12.143435 2.692518-25.075953 2.800941-38.671058l-12.047058-0.096377a279.178541 279.178541 0 0 1-2.680471 37.0688l11.926588 1.698635zM498.832565 329.944847c-9.228047-1.114353-18.974118 0.542118-28.370824 5.240471-7.119812 3.559906-12.6976 9.824376-16.5888 17.2032l10.661647 5.613929c3.035859-5.764518 6.999341-9.878588 11.312188-12.041035 7.402918-3.698447 14.775718-4.879059 21.534118-4.053836l1.445647-11.962729zM542.015247 394.764047c1.066165-10.143624 0.210824-19.516235-2.216659-27.834729l-11.565176 3.3792c1.957647 6.698165 2.710588 14.486588 1.801035 23.190588a115.790306 115.790306 0 0 1-3.252706 17.5104l11.643483 3.084047a127.819294 127.819294 0 0 0 3.590023-19.335529zM587.011012 413.696c6.866824-10.041224 12.643388-22.058165 17.167059-35.677365l-11.432659-3.794823c-4.234541 12.745788-9.547294 23.708612-15.673224 32.659576l9.938824 6.806588zM448.668612 396.540988c3.156329 13.866165 10.962824 27.358871 24.726588 36.960377l6.890918-9.878589c-11.035106-7.698071-17.3056-18.468141-19.8656-29.756235l-11.745883 2.674447zM536.545882 446.704941a57.693365 57.693365 0 0 0 20.323389-5.662117l-5.270589-10.842353a45.658353 45.658353 0 0 1-16.100894 4.499576c-7.137882 0.620424-13.673412 0.674635-19.630682 0.252988l-0.740894 10.450824-1.807059-0.963765c-5.571765 10.480941-12.245835 20.781176-19.636706 30.930824l9.734024 7.095717c7.643859-10.486965 14.637176-21.281129 20.540235-32.364423l-5.5296-2.939483c5.674165 0.240941 11.709741 0.096376 18.118776-0.457788zM454.625882 540.286494c8.354635-9.119624 16.859859-18.510306 25.106071-28.129882l-9.143718-7.842636A1132.995765 1132.995765 0 0 1 445.741176 532.148706l8.884706 8.137788z" fill="#BFBFBF" opacity=".56" /><path d="M598.702682 151.262871c2.770824 10.354447 0.283106 28.051576-6.46927 29.858635-6.746353 1.807059-17.751341-12.275953-20.522165-22.624377-2.770824-10.354447 1.024-20.359529 8.469082-22.359341 7.457129-1.999812 15.745506 4.776659 18.522353 15.125083z" fill="#BFBFBF" opacity=".56" /></svg>