<svg t="1661408820791" class="icon" viewBox="0 0 1027 1024" version="1.1" xmlns="http://www.w3.org/2000/svg" p-id="9020" width="200" height="200"><path d="M813.58009824 468.296162c-16.38893926-27.31489877-27.31489877-54.6297975-27.31489874-98.3336355v-16.38893925c0-71.01873676-16.38893926-120.18555449-54.62979751-163.8893925C682.46858424 118.66545797 589.59792849 74.96161998 496.72727274 74.96161998 403.85661698 74.96161998 316.44894097 118.66545797 261.81914349 184.22121498c-38.24085824 49.16681775-54.6297975 92.87065576-54.62979751 169.35237227v16.38893925c0 54.6297975-10.92595949 87.40767601-49.16681775 125.64853424-27.31489877 27.31489877-32.7778785 65.55575701-32.77787851 103.79661528s10.92595949 76.48171651 38.24085825 103.79661523c32.7778785 32.7778785 81.94469626 60.09277725 125.64853425 60.09277726 71.01873676 5.46297977 136.57449376 10.92595949 207.59323052 10.92595951h38.24085825l-16.38893925-21.85191902c-21.851919-32.7778785-21.851919-76.48171651 0-109.25959499l65.55575701-114.72257475c21.851919-32.7778785 54.6297975-54.6297975 98.33363549-54.62979751l131.111514-5.46297975zM562.28302975 823.38984576l21.85191899 38.24085825c5.46297977 10.92595949 16.38893926 21.851919 27.31489875 32.77787851-5.46297977 5.46297977-10.92595949 16.38893926-21.851919 21.851919-21.851919 16.38893926-49.16681775 27.31489877-76.48171649 32.77787849h-43.70383803c-27.31489877-5.46297977-54.6297975-16.38893926-76.48171649-32.77787849-16.38893926-10.92595949-27.31489877-32.7778785-32.7778785-49.16681776 0-21.851919 21.851919-32.7778785 38.24085825-38.24085826 27.31489877-5.46297977 120.18555449-5.46297977 163.88939252-5.46297974z" p-id="9021"></path><path d="M748.02434125 741.44514951c27.31489877 0 49.16681775-21.851919 49.16681774-49.16681775s-21.851919-49.16681775-49.16681774-49.16681775-49.16681775 21.851919-49.16681775 49.16681775 21.851919 49.16681775 49.16681775 49.16681775z" p-id="9022"></path><path d="M928.30267301 664.96343302l-65.55575701-114.72257477c-10.92595949-16.38893926-27.31489877-27.31489877-49.16681776-27.31489875h-131.111514c-21.851919 0-38.24085824 10.92595949-49.16681775 27.31489875l-65.555757 114.72257477c-10.92595949 16.38893926-10.92595949 38.24085824 0 54.62979749l65.555757 114.72257474c10.92595949 16.38893926 27.31489877 27.31489877 49.16681775 27.31489876h131.111514c21.851919 0 38.24085824-10.92595949 49.16681776-27.31489874l65.55575701-114.72257476c10.92595949-16.38893926 10.92595949-38.24085824 0-54.62979749z m-120.18555451 131.111514h-120.18555452l-60.09277725-103.79661526 60.09277725-103.79661525h120.18555452l60.09277726 103.79661525-60.09277726 103.79661526z" p-id="9023"></path></svg>