<svg t="1637319319354" class="icon" viewBox="0 0 1024 1024" version="1.1" xmlns="http://www.w3.org/2000/svg" p-id="18284" width="200" height="200"><path d="M814.911386 404.166191c0 58.944457 14.970698 93.662828 47.983006 133.712644 24.993815 29.472229 32.969657 67.346815 32.969656 108.377616s-12.966075 79.971677-38.940875 111.576483c-34.035946 37.917238-82.018952 62.100673-130.982943 66.323177-70.972197 6.269779-141.987046 11.558573-213.897578 11.558573a1810.985276 1810.985276 0 0 1-213.94023-11.558573c-49.006643-4.222505-96.989649-28.40594-130.940292-66.323177-26.017452-31.604807-39.026178-70.545682-39.026178-111.576483 0-41.030802 8.018493-78.905388 32.969656-108.377616 34.035946-40.049816 48.025658-74.768186 48.025658-133.712644v-19.96093c0-78.905388 18.979945-130.513776 57.963471-181.055876C325.10086 129.490139 418.038611 85.303122 509.995377 85.303122h4.051898c93.918737 0 189.884749 46.319595 246.909886 123.135056 36.978903 49.475811 53.954225 98.951621 53.954225 175.724431v20.046234z m-435.045922 528.495491c0-23.628965 20.899265-34.41981 40.177771-39.068829 22.605327-4.947581 160.156611-4.947581 182.719287 0 19.321157 4.64902 40.17777 15.439865 40.17777 39.068829-1.108941 22.520024-13.819106 42.438303-31.391549 55.105817a161.009642 161.009642 0 0 1-77.369931 34.334507c-15.439865 2.047275-30.581169 2.132578-45.509216 0a160.241914 160.241914 0 0 1-77.369931-34.377159c-17.615095-12.624862-30.282608-32.543141-31.434201-55.020513z" p-id="18285"></path></svg>