<?xml version="1.0" standalone="no"?><!DOCTYPE svg PUBLIC "-//W3C//DTD SVG 1.1//EN" "http://www.w3.org/Graphics/SVG/1.1/DTD/svg11.dtd"><svg t="1638527328672" class="icon" viewBox="0 0 1024 1024" version="1.1" xmlns="http://www.w3.org/2000/svg" p-id="21248" xmlns:xlink="http://www.w3.org/1999/xlink" width="200" height="200"><defs><style type="text/css"></style></defs><path d="M891.482353 234.917647L542.117647 30.117647c-18.070588-12.047059-42.164706-12.047059-60.235294 0L132.517647 234.917647c-24.094118 12.047059-30.117647 30.117647-30.117647 54.211765v403.57647c0 24.094118 12.047059 42.164706 30.117647 54.211765l349.364706 204.8c18.070588 12.047059 42.164706 12.047059 60.235294 0l349.364706-204.8c18.070588-12.047059 30.117647-30.117647 30.117647-54.211765V289.129412c0-24.094118-6.023529-42.164706-30.117647-54.211765zM554.164706 493.929412v216.847059H469.835294V493.929412l-210.823529-120.470588L301.176471 301.176471 512 421.647059l210.823529-120.470588 42.164706 66.258823-210.823529 126.494118zM512 469.835294z" p-id="21249"></path></svg>