<?xml version="1.0" standalone="no"?><!DOCTYPE svg PUBLIC "-//W3C//DTD SVG 1.1//EN" "http://www.w3.org/Graphics/SVG/1.1/DTD/svg11.dtd"><svg t="1638527252912" class="icon" viewBox="0 0 1024 1024" version="1.1" xmlns="http://www.w3.org/2000/svg" p-id="19394" xmlns:xlink="http://www.w3.org/1999/xlink" width="200" height="200"><defs><style type="text/css"></style></defs><path d="M921.6 84.329412c-24.094118-24.094118-54.211765-30.117647-84.329412-24.094118L138.541176 265.035294c-30.117647 6.023529-54.211765 36.141176-60.235294 66.258824-6.023529 30.117647 18.070588 72.282353 42.164706 90.352941l216.847059 132.517647c24.094118 18.070588 54.211765 12.047059 72.282353-6.02353l246.964706-252.988235c12.047059-12.047059 36.141176-12.047059 48.188235 0 12.047059 12.047059 12.047059 36.141176 0 48.188235L457.788235 596.329412c-18.070588 18.070588-24.094118 48.188235-6.023529 72.282353l132.517647 222.870588c18.070588 24.094118 42.164706 42.164706 72.282353 42.164706h12.047059c36.141176-6.023529 60.235294-30.117647 72.282353-60.235294l204.8-698.729412c6.023529-36.141176 0-72.282353-24.094118-90.352941" p-id="19395"></path></svg>