<?xml version="1.0" standalone="no"?><!DOCTYPE svg PUBLIC "-//W3C//DTD SVG 1.1//EN" "http://www.w3.org/Graphics/SVG/1.1/DTD/svg11.dtd"><svg t="1638527312692" class="icon" viewBox="0 0 1024 1024" version="1.1" xmlns="http://www.w3.org/2000/svg" p-id="20817" xmlns:xlink="http://www.w3.org/1999/xlink" width="200" height="200"><defs><style type="text/css"></style></defs><path d="M608.376471 355.388235v234.917647c48.188235 0 84.329412-18.070588 108.423529-36.141176 18.070588-18.070588 30.117647-48.188235 30.117647-84.329412 0-36.141176-12.047059-60.235294-30.117647-78.305882-30.117647-24.094118-78.305882-30.117647-108.423529-36.141177z" p-id="20818"></path><path d="M692.705882 66.258824H331.294118c-144.564706 0-240.941176 102.4-240.941177 246.964705V662.588235c0 150.588235 96.376471 246.964706 240.941177 246.964706h361.411764c144.564706 0 240.941176-102.4 240.941177-246.964706V319.247059c0-150.588235-96.376471-252.988235-240.941177-252.988235z m-186.729411 560.188235c-6.023529 6.023529-6.023529 12.047059-18.070589 18.070588-6.023529 6.023529-18.070588 6.023529-24.094117 0-6.023529-6.023529-12.047059-6.023529-18.070589-18.070588l-24.094117-66.258824h-120.470588l-24.094118 66.258824c0 6.023529-6.023529 12.047059-12.047059 12.047059-6.023529 6.023529-12.047059 6.023529-18.070588 6.023529h-12.047059c-6.023529 0-6.023529-6.023529-12.047059-6.023529 0 0-6.023529-6.023529-6.023529-12.047059v-12.047059-12.047059L331.294118 325.270588c0-6.023529 6.023529-12.047059 12.047058-12.047059s12.047059-6.023529 18.070589-6.023529c12.047059 0 24.094118 6.023529 30.117647 18.070588L505.976471 602.352941v24.094118z m252.988235-30.117647c-36.141176 36.141176-96.376471 54.211765-168.658824 54.211764h-12.047058c-18.070588 0-30.117647-12.047059-30.117648-30.117647V325.270588c0-18.070588 12.047059-30.117647 30.117648-30.117647 6.023529 0 114.447059-12.047059 180.705882 48.188235 30.117647 30.117647 48.188235 72.282353 48.188235 120.470589 0 60.235294-18.070588 102.4-48.188235 132.517647z" p-id="20819"></path><path d="M325.270588 499.952941h72.282353l-36.141176-84.329412z" p-id="20820"></path></svg>