<svg t="1658556777476" class="icon" viewBox="0 0 1024 1024" version="1.1" xmlns="http://www.w3.org/2000/svg" p-id="13825" width="200" height="200"><path d="M813.511111 147.911111h-96.711111c-17.066667-28.444444-45.511111-45.511111-73.955556-45.511111H381.155556c-34.133333 0-62.577778 17.066667-73.955556 45.511111H204.8c-45.511111 0-85.333333 39.822222-85.333333 85.333333v631.466667c0 45.511111 39.822222 85.333333 85.333333 85.333333H682.666667c119.466667 0 216.177778-96.711111 216.177777-216.177777V233.244444c0-45.511111-39.822222-85.333333-85.333333-85.333333z m-432.355555 45.511111h261.688888V238.933333H381.155556v-45.511111z m432.355555 540.444445c0 73.955556-56.888889 130.844444-130.844444 130.844444H204.8V233.244444h85.333333c0 51.2 39.822222 85.333333 91.022223 85.333334h261.688888c45.511111 0 85.333333-39.822222 85.333334-85.333334h85.333333v500.622223z" p-id="13826"></path><path d="M335.644444 477.866667c0-22.755556 17.066667-45.511111 45.511112-45.511111h261.688888c22.755556 0 39.822222 22.755556 39.822223 45.511111s-17.066667 45.511111-45.511111 45.511111H381.155556c-22.755556 0-45.511111-22.755556-45.511112-45.511111zM381.155556 608.711111c-22.755556 0-45.511111 17.066667-45.511112 45.511111s17.066667 45.511111 45.511112 45.511111H512c22.755556 0 45.511111-17.066667 45.511111-45.511111s-22.755556-45.511111-45.511111-45.511111H381.155556z" p-id="13827"></path></svg>