<svg t="1637319346339" class="icon" viewBox="0 0 1024 1024" version="1.1" xmlns="http://www.w3.org/2000/svg" p-id="18416" width="200" height="200"><path d="M895.914667 113.578667V159.573333a380.629333 380.629333 0 0 1-185.941334 333.653334 375.296 375.296 0 0 1 185.941334 332.8v47.274666a72.746667 72.746667 0 0 1-72.789334 72.533334H200.789333A72.789333 72.789333 0 0 1 128 871.850667V826.026667a381.653333 381.653333 0 0 1 198.698667-331.776A388.608 388.608 0 0 1 128 159.573333V113.578667A72.533333 72.533333 0 0 1 200.789333 42.666667h622.336a72.533333 72.533333 0 0 1 72.789334 70.912zM369.450667 749.226667a29.738667 29.738667 0 1 0 0 59.477333h280.490666a29.738667 29.738667 0 0 0 0-59.477333H369.493333z" p-id="18417"></path></svg>