<svg t="1638932992188" class="icon" viewBox="0 0 1024 1024" version="1.1" xmlns="http://www.w3.org/2000/svg" p-id="11984" width="200" height="200"><path d="M870.4 157.866667c-12.8-12.8-34.133333-12.8-46.933333 0l-89.6 89.6c-68.266667-46.933333-145.066667-72.533333-226.133334-72.533334-89.6 0-174.933333 29.866667-247.466666 89.6C187.733333 320 128 401.066667 81.066667 503.466667c-4.266667 8.533333-4.266667 17.066667 0 25.6 38.4 85.333333 89.6 157.866667 149.333333 213.333333l-85.333333 81.066667-4.266667 4.266666c-8.533333 12.8-8.533333 29.866667 4.266667 42.666667 12.8 12.8 34.133333 12.8 46.933333 0L870.4 204.8l4.266667-4.266667c8.533333-12.8 8.533333-29.866667-4.266667-42.666666zM418.133333 558.933333c-8.533333-12.8-12.8-29.866667-12.8-46.933333 0-55.466667 46.933333-102.4 102.4-102.4 17.066667 0 34.133333 4.266667 46.933334 12.8l-136.533334 136.533333z m187.733334-183.466666c-25.6-17.066667-59.733333-29.866667-93.866667-29.866667-93.866667 0-166.4 72.533333-166.4 166.4 0 34.133333 8.533333 64 29.866667 89.6l-89.6 89.6c-51.2-46.933333-93.866667-106.666667-128-179.2v-8.533333c34.133333-76.8 85.333333-145.066667 145.066666-192 64-46.933333 132.266667-72.533333 209.066667-72.533334 64 0 123.733333 17.066667 179.2 55.466667l-85.333333 81.066667z" p-id="11985"></path><path d="M644.266667 503.466667h4.266666c17.066667 4.266667 29.866667 21.333333 25.6 38.4-12.8 68.266667-64 119.466667-132.266666 132.266666-17.066667 4.266667-34.133333-8.533333-38.4-25.6-4.266667-17.066667 8.533333-34.133333 25.6-38.4 42.666667-8.533333 76.8-38.4 81.066666-81.066666 4.266667-12.8 21.333333-25.6 34.133334-25.6z" p-id="11986"></path><path d="M810.666667 354.133333c12.8-8.533333 34.133333-8.533333 46.933333 4.266667 29.866667 38.4 59.733333 85.333333 81.066667 136.533333 4.266667 8.533333 4.266667 17.066667 0 25.6-89.6 200.533333-247.466667 324.266667-422.4 324.266667-38.4 0-81.066667-4.266667-119.466667-17.066667-17.066667-4.266667-25.6-21.333333-21.333333-38.4 4.266667-17.066667 25.6-25.6 38.4-21.333333 29.866667 8.533333 64 17.066667 98.133333 17.066667 140.8 0 273.066667-98.133333 354.133333-260.266667l8.533334-12.8-4.266667-4.266667c-17.066667-34.133333-34.133333-64-55.466667-93.866666l-8.533333-12.8c-12.8-17.066667-8.533333-34.133333 4.266667-46.933334z" p-id="11987"></path></svg>