<svg t="1638933004863" class="icon" viewBox="0 0 1024 1024" version="1.1" xmlns="http://www.w3.org/2000/svg" p-id="12118" width="200" height="200"><path d="M524.288 170.88L512.085333 170.666667c-176.64 0-335.914667 124.714667-424.149333 328.789333a31.616 31.616 0 0 0 0 25.088l6.101333 13.781333c87.125333 190.976 237.696 309.205333 405.674667 314.794667l12.202667 0.213333c176.64 0 335.914667-124.714667 424.149333-328.789333a31.616 31.616 0 0 0-0.128-25.386667l-5.973333-13.354666C842.666667 294.4 692.053333 176.469333 524.330667 170.88z m-11.904 63.317333l10.197333 0.256 11.392 0.554667c136.405333 9.685333 261.845333 110.848 337.664 276.949333l-0.426666 1.024c-77.653333 169.685333-207.445333 271.445333-348.16 276.565334l-10.88 0.170666-10.965334-0.170666-11.349333-0.597334c-132.181333-9.344-254.08-104.832-330.325333-261.589333L152.32 512l6.698667-14.250667C239.36 331.648 370.773333 234.24 512.384 234.24z m-0.426667 111.957334c-92.16 0-166.826667 74.24-166.826666 165.845333 0 91.562667 74.666667 165.802667 166.826666 165.802667s166.912-74.24 166.912-165.802667c0-91.605333-74.709333-165.845333-166.912-165.845333z m0 63.573333A102.570667 102.570667 0 0 1 614.912 512 102.570667 102.570667 0 0 1 512 614.229333 102.528 102.528 0 0 1 409.173333 512a102.528 102.528 0 0 1 102.826667-102.229333z" p-id="12119"></path></svg>