<?xml version="1.0" standalone="no"?><!DOCTYPE svg PUBLIC "-//W3C//DTD SVG 1.1//EN" "http://www.w3.org/Graphics/SVG/1.1/DTD/svg11.dtd"><svg t="1638178276149" class="icon" viewBox="0 0 1024 1024" version="1.1" xmlns="http://www.w3.org/2000/svg" p-id="6359" xmlns:xlink="http://www.w3.org/1999/xlink" width="200" height="200"><defs><style type="text/css"></style></defs><path d="M85.333333 512.256C85.333333 276.736 276.821333 85.333333 512 85.333333s426.666667 191.402667 426.666667 426.922667C938.666667 747.264 747.178667 938.666667 512 938.666667S85.333333 747.264 85.333333 512.256z m583.168 43.178667c4.522667-4.522667 10.282667-11.52 11.52-13.184 6.570667-8.618667 9.898667-19.328 9.898667-29.994667 0-11.989333-3.712-23.125333-10.709333-32.170667a369.834667 369.834667 0 0 0-13.610667-14.421333c-33.749333-36.181333-121.898667-95.488-168.021333-113.578667-6.997333-2.858667-24.746667-9.045333-34.176-9.472-9.088 0-17.706667 2.048-25.941334 6.186667a53.376 53.376 0 0 0-23.04 25.514667c-2.901333 7.381333-7.466667 29.610667-7.466666 30.037333-4.522667 24.32-6.997333 63.786667-6.997334 107.434667 0 41.642667 2.474667 79.445333 6.186667 104.149333 0.085333 0.085333 0.426667 1.877333 1.024 4.608 1.664 8.362667 5.12 25.728 8.874667 32.853333 9.045333 17.28 26.752 27.989333 45.696 27.989334h1.664c12.373333-0.426667 38.272-11.093333 38.272-11.52 43.690667-18.133333 129.749333-74.496 164.352-111.957334l2.474666-2.474666z" p-id="6360"></path></svg>