<svg t="1638933060412" class="icon" viewBox="0 0 1024 1024" version="1.1" xmlns="http://www.w3.org/2000/svg" p-id="14393" width="200" height="200"><path d="M405.333333 192m-64 0a64 64 0 1 0 128 0 64 64 0 1 0-128 0Z" p-id="14394"></path><path d="M661.333333 192m-64 0a64 64 0 1 0 128 0 64 64 0 1 0-128 0Z" p-id="14395"></path><path d="M405.333333 405.333333m-64 0a64 64 0 1 0 128 0 64 64 0 1 0-128 0Z" p-id="14396"></path><path d="M661.333333 405.333333m-64 0a64 64 0 1 0 128 0 64 64 0 1 0-128 0Z" p-id="14397"></path><path d="M405.333333 618.666667m-64 0a64 64 0 1 0 128 0 64 64 0 1 0-128 0Z" p-id="14398"></path><path d="M661.333333 618.666667m-64 0a64 64 0 1 0 128 0 64 64 0 1 0-128 0Z" p-id="14399"></path><path d="M405.333333 832m-64 0a64 64 0 1 0 128 0 64 64 0 1 0-128 0Z" p-id="14400"></path><path d="M661.333333 832m-64 0a64 64 0 1 0 128 0 64 64 0 1 0-128 0Z" p-id="14401"></path></svg>