<svg t="1637318435893" class="icon" viewBox="0 0 1024 1024" version="1.1" xmlns="http://www.w3.org/2000/svg" p-id="4801" width="200" height="200"><path d="M512.073143 439.442286c41.691429 0 75.556571 32.548571 75.556571 72.704 0 40.082286-33.792 72.630857-75.556571 72.630857-41.691429 0-75.556571-32.548571-75.556572-72.630857 0-40.155429 33.865143-72.704 75.556572-72.704z" p-id="4802"></path><path d="M486.838857 112.932571h50.249143c28.818286 0 56.393143 11.190857 76.507429 31.085715s30.939429 46.738286 30.061714 71.826285a45.348571 45.348571 0 0 0 34.523428 43.008c15.798857 3.949714 29.257143-1.901714 43.081143-8.777142 50.029714-22.674286 110.006857-4.681143 137.728 41.691428 9.874286 16.384 20.187429 32.475429 29.037715 49.444572a100.205714 100.205714 0 0 1-35.986286 127.853714c-19.675429 11.922286-35.693714 28.964571-28.598857 54.418286 4.388571 15.652571 16.530286 23.917714 29.549714 31.890285a102.4 102.4 0 0 1 41.691429 57.490286c7.314286 26.331429 3.437714 54.272-10.971429 78.116571l-30.939429 49.005715a108.909714 108.909714 0 0 1-139.337142 31.012571c-18.724571-9.289143-40.082286-9.142857-56.173715 6.290286-11.410286 10.971429-13.165714 24.941714-13.897143 39.862857-4.461714 53.101714-50.688 94.134857-106.276571 94.134857h-50.249143c-58.953143 0-106.715429-45.933714-106.642286-100.717714a46.08 46.08 0 0 0-34.304-43.446857c-16.091429-4.169143-29.696 2.048-43.885714 8.777143-22.820571 9.947429-48.64 11.702857-72.850286 5.12a105.764571 105.764571 0 0 1-63.853714-48.420572l-29.403428-49.444571a99.913143 99.913143 0 0 1 41.910857-131.657143c14.189714-8.557714 24.283429-22.162286 24.283428-39.350857 0-21.065143-14.336-33.28-30.72-43.373715a100.352 100.352 0 0 1-31.085714-136.045714l26.404571-41.691428c29.403429-49.005714 94.500571-65.901714 144.530286-38.326858 7.168 3.657143 14.409143 6.509714 22.674286 6.582858 31.085714 0 45.787429-25.088 46.957714-52.662858 2.121143-23.990857 12.946286-46.518857 30.646857-63.634285a108.470857 108.470857 0 0 1 75.337143-30.061715z m25.307429 268.726858c-74.971429 0-135.68 58.441143-135.68 130.486857s60.708571 130.413714 135.68 130.413714c74.898286 0 135.606857-58.368 135.606857-130.413714 0-72.045714-60.708571-130.486857-135.606857-130.486857z" p-id="4803"></path></svg>