<svg t="1638933133057" class="icon" viewBox="0 0 1024 1024" version="1.1" xmlns="http://www.w3.org/2000/svg" p-id="16675" width="200" height="200"><path d="M821.134222 967.111111H202.865778a171.121778 171.121778 0 0 1-123.278222-53.304889 186.026667 186.026667 0 0 1-51.143112-128.568889c0-1.137778 0.056889-2.389333 0.227556-3.640889L91.022222 236.771556c0.568889-47.900444 19.114667-93.582222 51.768889-127.260445A171.064889 171.064889 0 0 1 265.500444 56.888889h492.999112a171.064889 171.064889 0 0 1 122.652444 52.622222c32.597333 33.678222 51.2 79.36 51.768889 127.260445l62.407111 544.768a31.687111 31.687111 0 0 1 0.227556 3.697777 186.026667 186.026667 0 0 1-51.143112 128.568889c-32.711111 34.076444-77.027556 53.248-123.278222 53.304889zM87.722667 787.000889c0.455111 31.516444 12.8 61.553778 34.304 83.683555 21.560889 22.186667 50.574222 34.531556 80.782222 34.588445h618.325333c30.208 0 59.221333-12.458667 80.782222-34.588445 21.504-22.072889 33.848889-52.167111 34.304-83.626666L873.870222 242.346667a31.630222 31.630222 0 0 1-0.170666-3.697778c0-31.857778-12.231111-62.350222-33.792-84.821333a112.924444 112.924444 0 0 0-81.351112-35.157334H265.443556c-30.549333 0-59.790222 12.686222-81.351112 35.157334-21.617778 22.528-33.735111 53.020444-33.792 84.821333a32.256 32.256 0 0 1-0.227555 3.697778l-62.407111 544.597333z" p-id="16676"></path><path d="M511.943111 512C402.147556 512 312.888889 423.992889 312.888889 315.960889a31.288889 31.288889 0 0 1 9.386667-22.300445 32.199111 32.199111 0 0 1 45.169777 0 31.288889 31.288889 0 0 1 9.386667 22.300445c0 35.271111 14.222222 69.176889 39.594667 94.151111 25.315556 24.974222 59.733333 38.968889 95.573333 38.968889 35.84 0 70.257778-13.994667 95.573333-38.968889a132.152889 132.152889 0 0 0 39.594667-94.151111 31.004444 31.004444 0 0 1 9.386667-22.300445 32.028444 32.028444 0 0 1 34.816-6.826666 32.085333 32.085333 0 0 1 17.294222 17.066666c1.592889 3.811556 2.446222 7.907556 2.446222 12.060445C711.054222 424.049778 621.738667 512 511.943111 512z" p-id="16677"></path></svg>