<svg t="1658556882229" class="icon" viewBox="0 0 1024 1024" version="1.1" xmlns="http://www.w3.org/2000/svg" p-id="15225" width="200" height="200"><path d="M944.355556 301.511111l-119.466667-159.288889c-17.066667-22.755556-45.511111-34.133333-73.955556-34.133333H278.755556c-28.444444 0-56.888889 11.377778-73.955556 34.133333L85.333333 301.511111c-11.377778 11.377778-11.377778 17.066667-11.377777 28.444445v45.511111c0 45.511111 17.066667 91.022222 45.511111 119.466666v329.955556c0 51.2 39.822222 91.022222 91.022222 91.022222h608.711111c51.2 0 91.022222-39.822222 91.022222-91.022222V494.933333c28.444444-34.133333 45.511111-73.955556 45.511111-119.466666v-45.511111c0-11.377778-5.688889-17.066667-11.377777-28.444445zM278.755556 193.422222h466.488888L813.511111 284.444444H210.488889l68.266667-91.022222z m324.266666 182.044445c0 51.2-39.822222 91.022222-91.022222 91.022222s-91.022222-39.822222-91.022222-91.022222h182.044444z m-438.044444 0h164.977778c0 51.2-39.822222 91.022222-91.022223 91.022222-51.2 0-73.955556-39.822222-73.955555-91.022222z m648.533333 455.111111H210.488889V551.822222c11.377778 5.688889 11.377778 5.688889 28.444444 5.688889 56.888889 0 102.4-22.755556 136.533334-62.577778 34.133333 39.822222 79.644444 62.577778 136.533333 62.577778 51.2 0 102.4-22.755556 130.844444-62.577778 34.133333 39.822222 73.955556 62.577778 125.155556 62.577778 17.066667 0 28.444444 0 45.511111-5.688889v278.755556z m-34.133333-364.088889c-51.2 0-85.333333-39.822222-85.333334-91.022222h170.666667c-5.688889 51.2-34.133333 91.022222-85.333333 91.022222z" p-id="15226"></path></svg>