<svg t="1658556798582" class="icon" viewBox="0 0 1024 1024" version="1.1" xmlns="http://www.w3.org/2000/svg" p-id="14105" width="200" height="200"><path d="M551.822222 233.244444C529.066667 170.666667 472.177778 125.155556 403.911111 125.155556c-85.333333 0-153.6 68.266667-153.6 153.6s62.577778 159.288889 153.6 159.288888c68.266667 0 130.844444-45.511111 147.911111-108.088888h403.911111V233.244444H551.822222z m-147.911111 113.777778c-34.133333 0-68.266667-28.444444-68.266667-62.577778 0-34.133333 28.444444-68.266667 68.266667-68.266666 45.511111 0 68.266667 34.133333 68.266667 68.266666s-28.444444 62.577778-68.266667 62.577778zM859.022222 500.622222c-17.066667-62.577778-79.644444-108.088889-147.911111-108.088889-85.333333 0-153.6 68.266667-153.6 153.6s68.266667 153.6 153.6 153.6c68.266667 0 130.844444-45.511111 147.911111-108.088889h96.711111V500.622222h-96.711111z m-147.911111 113.777778c-34.133333 0-68.266667-34.133333-68.266667-68.266667 0-39.822222 34.133333-68.266667 68.266667-68.266666 39.822222 0 68.266667 34.133333 68.266667 68.266666 0 39.822222-34.133333 68.266667-68.266667 68.266667zM312.888889 659.911111c-68.266667 0-130.844444 45.511111-147.911111 108.088889H68.266667v91.022222h96.711111c17.066667 62.577778 79.644444 108.088889 147.911111 108.088889 85.333333 0 153.6-68.266667 153.6-153.6S398.222222 659.911111 312.888889 659.911111z m0 216.177778c-39.822222 0-68.266667-28.444444-68.266667-68.266667S278.755556 739.555556 312.888889 739.555556c39.822222 0 68.266667 34.133333 68.266667 68.266666 0 39.822222-34.133333 68.266667-68.266667 68.266667zM512 768h443.733333v91.022222H512v-91.022222zM512 500.622222H68.266667v91.022222H512V500.622222zM199.111111 233.244444H68.266667v91.022223h130.844444V233.244444z" p-id="14106"></path></svg>