<?xml version="1.0" standalone="no"?><!DOCTYPE svg PUBLIC "-//W3C//DTD SVG 1.1//EN" "http://www.w3.org/Graphics/SVG/1.1/DTD/svg11.dtd"><svg t="1638527261459" class="icon" viewBox="0 0 1024 1024" version="1.1" xmlns="http://www.w3.org/2000/svg" p-id="19678" xmlns:xlink="http://www.w3.org/1999/xlink" width="200" height="200"><defs><style type="text/css"></style></defs><path d="M391.529412 512c120.470588 0 222.870588-96.376471 222.870588-216.847059S518.023529 78.305882 391.529412 78.305882c-120.470588 0-222.870588 96.376471-222.870588 216.847059 6.023529 120.470588 102.4 216.847059 222.870588 216.847059zM391.529412 614.4c-180.705882 0-331.294118 30.117647-331.294118 138.541176 0 108.423529 150.588235 138.541176 331.294118 138.541177s331.294118-30.117647 331.294117-138.541177c0-108.423529-150.588235-138.541176-331.294117-138.541176zM698.729412 301.176471c0 60.235294-18.070588 120.470588-54.211765 162.635294-6.023529 6.023529 0 12.047059 6.023529 12.047059h24.094118c84.329412 0 162.635294-54.211765 186.729412-132.517648 30.117647-120.470588-60.235294-228.894118-180.705882-228.894117-12.047059 0-24.094118 0-36.141177 6.023529h-6.023529v6.02353c42.164706 48.188235 60.235294 108.423529 60.235294 174.682353zM957.741176 632.470588c-18.070588-30.117647-54.211765-54.211765-114.447058-66.258823-30.117647-6.023529-102.4-18.070588-168.658824-12.047059 30.117647 18.070588 156.611765 84.329412 138.541177 222.870588 0 6.023529 6.023529 12.047059 12.047058 12.047059 30.117647-6.023529 108.423529-18.070588 132.517647-72.282353 12.047059-30.117647 12.047059-60.235294 0-84.329412z" p-id="19679"></path></svg>