<?xml version="1.0" standalone="no"?><!DOCTYPE svg PUBLIC "-//W3C//DTD SVG 1.1//EN" "http://www.w3.org/Graphics/SVG/1.1/DTD/svg11.dtd"><svg t="1638527237969" class="icon" viewBox="0 0 1024 1024" version="1.1" xmlns="http://www.w3.org/2000/svg" p-id="19109" xmlns:xlink="http://www.w3.org/1999/xlink" width="200" height="200"><defs><style type="text/css"></style></defs><path d="M909.552941 349.364706H108.423529c-42.164706 0-42.164706 18.070588-42.164705 42.164706l36.141176 397.552941c0 24.094118 6.023529 42.164706 48.188235 42.164706h710.776471c42.164706 0 48.188235-18.070588 48.188235-42.164706l36.141177-397.552941c6.023529-24.094118 6.023529-42.164706-36.141177-42.164706zM885.458824 252.988235c-6.023529-18.070588-30.117647-36.141176-54.211765-36.141176h-301.176471c-24.094118 0-60.235294-12.047059-78.305882-30.117647l-24.094118-24.094118c-18.070588-18.070588-54.211765-36.141176-78.305882-36.141176H204.8c-24.094118 0-48.188235 18.070588-48.188235 42.164706l-12.047059 120.470588h746.917647l-6.023529-36.141177z" p-id="19110"></path></svg>