<?xml version="1.0" standalone="no"?><!DOCTYPE svg PUBLIC "-//W3C//DTD SVG 1.1//EN" "http://www.w3.org/Graphics/SVG/1.1/DTD/svg11.dtd"><svg t="1638527278869" class="icon" viewBox="0 0 1024 1024" version="1.1" xmlns="http://www.w3.org/2000/svg" p-id="20248" xmlns:xlink="http://www.w3.org/1999/xlink" width="200" height="200"><defs><style type="text/css"></style></defs><path d="M963.764706 451.764706c-6.023529-12.047059-12.047059-18.070588-18.070588-24.094118l-84.329412-84.329412v-120.470588c0-24.094118-6.023529-42.164706-24.094118-60.235294-18.070588-18.070588-36.141176-24.094118-60.235294-24.094118h-120.470588L572.235294 54.211765C536.094118 18.070588 487.905882 18.070588 451.764706 54.211765L367.435294 138.541176h-120.470588c-12.047059 0-24.094118 0-30.117647 6.02353-12.047059 6.023529-18.070588 12.047059-30.117647 18.070588s-12.047059 18.070588-18.070588 24.094118c0 12.047059-6.023529 24.094118-6.02353 30.117647v120.470588L78.305882 427.670588C48.188235 457.788235 48.188235 512 78.305882 542.117647l84.329412 84.329412v120.470588c0 12.047059 0 24.094118 6.02353 30.117647 6.023529 12.047059 12.047059 18.070588 18.070588 24.094118s18.070588 12.047059 24.094117 18.070588c12.047059 6.023529 18.070588 6.023529 30.117647 6.023529h120.470589L451.764706 921.6c30.117647 30.117647 84.329412 30.117647 114.447059 0l84.329411-84.329412h120.470589c12.047059 0 24.094118 0 30.117647-6.023529 12.047059-6.023529 18.070588-12.047059 24.094117-18.070588 6.023529-6.023529 12.047059-18.070588 18.070589-24.094118 6.023529-12.047059 6.023529-18.070588 6.023529-30.117647v-120.470588L945.694118 542.117647c6.023529-6.023529 12.047059-18.070588 18.070588-24.094118 6.023529-12.047059 6.023529-18.070588 6.023529-30.117647s0-24.094118-6.023529-36.141176z m-240.941177-48.188235l-265.035294 222.870588c-6.023529 6.023529-18.070588 12.047059-24.094117 12.047059h-6.02353c-12.047059 0-18.070588-6.023529-30.117647-12.047059l-102.4-120.470588c-12.047059-24.094118-12.047059-48.188235 6.02353-60.235295 18.070588-12.047059 42.164706-12.047059 60.235294 6.02353L433.694118 542.117647l234.917647-198.776471c18.070588-12.047059 42.164706-12.047059 60.235294 6.02353 12.047059 12.047059 12.047059 42.164706-6.02353 54.211765z" p-id="20249"></path></svg>