<?xml version="1.0" standalone="no"?><!DOCTYPE svg PUBLIC "-//W3C//DTD SVG 1.1//EN" "http://www.w3.org/Graphics/SVG/1.1/DTD/svg11.dtd"><svg t="1638527257373" class="icon" viewBox="0 0 1024 1024" version="1.1" xmlns="http://www.w3.org/2000/svg" p-id="19536" xmlns:xlink="http://www.w3.org/1999/xlink" width="200" height="200"><defs><style type="text/css"></style></defs><path d="M512 48.188235C271.058824 48.188235 78.305882 246.964706 78.305882 481.882353c0 240.941176 192.752941 433.694118 433.694118 433.694118S945.694118 722.823529 945.694118 481.882353C945.694118 246.964706 752.941176 48.188235 512 48.188235zM295.152941 548.141176c-36.141176 0-60.235294-30.117647-60.235294-60.235294s30.117647-60.235294 60.235294-60.235294c36.141176 0 60.235294 30.117647 60.235294 60.235294s-30.117647 60.235294-60.235294 60.235294z m216.847059 0c-36.141176 0-60.235294-30.117647-60.235294-60.235294s30.117647-60.235294 60.235294-60.235294 60.235294 30.117647 60.235294 60.235294-24.094118 60.235294-60.235294 60.235294z m216.847059 0c-36.141176 0-60.235294-30.117647-60.235294-60.235294s30.117647-60.235294 60.235294-60.235294 60.235294 30.117647 60.235294 60.235294-24.094118 60.235294-60.235294 60.235294z" p-id="19537"></path></svg>