<?xml version="1.0" standalone="no"?><!DOCTYPE svg PUBLIC "-//W3C//DTD SVG 1.1//EN" "http://www.w3.org/Graphics/SVG/1.1/DTD/svg11.dtd"><svg t="1638516989506" class="icon" viewBox="0 0 1024 1024" version="1.1" xmlns="http://www.w3.org/2000/svg" p-id="6457" xmlns:xlink="http://www.w3.org/1999/xlink" width="128" height="128"><defs><style type="text/css"></style></defs><path d="M842.74999968 302.52499978c55.12500011 0 99.225 44.09999989 99.225 99.225v385.87499979c0 55.12500011-44.09999989 99.225-99.225 99.225H181.25000032c-55.12500011 0-99.225-44.09999989-99.225-99.225V302.52499978H842.74999968M842.74999968 236.37500043H15.875v551.24999914c0 93.71249989 71.66250043 165.37500032 165.37500032 165.37500032h661.49999936c93.71249989 0 165.37500032-71.66250043 165.37500032-165.37500032V401.74999978c0-93.71249989-71.66250043-165.37500032-165.37500032-165.37499935z" p-id="6458"></path><path d="M500.97499978 137.15000043c5.51250011 5.51250011 16.53750032 27.56249957 22.05000044 38.58749979L561.6125 236.37500043H82.02500032V142.66249957c0-5.51250011 5.51250011-5.51250011 11.02499925-5.51249914h407.92500021zM489.94999957 71.00000011H93.04999957C48.94999968 71.00000011 15.875 104.07499978 15.875 142.66249957v159.86250021h661.50000032l-93.71249989-159.86250021C545.07499968 82.02500032 534.05000043 71.00000011 489.94999957 71.00000011z" p-id="6459"></path></svg>