<svg t="1670555657988" class="icon" viewBox="0 0 1024 1024" version="1.1" xmlns="http://www.w3.org/2000/svg" p-id="9585" width="200" height="200"><path d="M663.552 126.976l-114.688 176.128c-8.192 8.192-8.192 20.48-4.096 32.768l32.768 126.976c0 8.192 0 16.384-4.096 20.48l-8.192 8.192v12.288c0 24.576-16.384 45.056-36.864 53.248-4.096 0-8.192 0-12.288 4.096l-40.96 53.248c-4.096 4.096-4.096 8.192-4.096 12.288l12.288 102.4c0 4.096-4.096 8.192-8.192 4.096l-45.056-106.496V614.4l36.864-81.92c-4.096-8.192-4.096-12.288-4.096-20.48 0-20.48 12.288-40.96 32.768-49.152 0-4.096-4.096-8.192-4.096-8.192L393.216 335.872c-8.192-12.288-12.288-24.576-8.192-36.864l45.056-196.608c-196.608 36.864-331.776 212.992-331.776 401.408 0 69.632 20.48 139.264 53.248 204.8 12.288 12.288 12.288 28.672 8.192 40.96l-28.672 90.112c-8.192 24.576 12.288 40.96 32.768 32.768l81.92-24.576c20.48-8.192 40.96 4.096 61.44 16.384 61.44 36.864 135.168 53.248 200.704 53.248 204.8 0 409.6-155.648 409.6-409.6 0-167.936-102.4-319.488-253.952-380.928zM368.64 524.288c-8.192 20.48-24.576 32.768-49.152 36.864-4.096 0-12.288 0-16.384-4.096-20.48-8.192-36.864-28.672-36.864-49.152 0-28.672 24.576-53.248 53.248-53.248s53.248 24.576 53.248 53.248c0 4.096 0 12.288-4.096 16.384z m327.68 36.864h-12.288c-24.576-4.096-40.96-24.576-40.96-53.248 0-28.672 24.576-53.248 53.248-53.248 24.576 0 45.056 16.384 53.248 40.96v12.288c0 28.672-24.576 53.248-53.248 53.248z" p-id="9586"></path></svg>