<svg t="1665220247430" class="icon" viewBox="0 0 1024 1024" version="1.1" xmlns="http://www.w3.org/2000/svg" p-id="6843" width="200" height="200"><path d="M439.115294 136.734118c12.649412-12.047059 24.094118-31.322353 31.924706-62.644706C247.567059 94.569412 72.282353 283.105882 72.282353 512c0 242.748235 196.969412 439.717647 439.717647 439.717647 26.503529 0 53.007059-2.409412 78.305882-7.228235-15.661176-22.889412-26.503529-43.369412-33.129411-60.837647-6.625882-19.275294-8.432941-37.345882-3.614118-52.404706 9.637647-31.322353 40.96-46.381176 72.282353-55.416471 16.263529-4.818824 34.334118-8.432941 52.404706-12.047059 3.614118-0.602353 7.228235-1.204706 10.842353-2.409411l43.369411-9.035294c35.538824-8.432941 65.656471-19.275294 84.329412-37.345883 33.129412-31.924706 36.141176-54.211765 33.129412-67.463529-2.409412-9.637647-8.432941-17.468235-15.661176-23.491765 4.818824-5.421176 8.432941-12.047059 11.444705-19.877647 1.204706-2.409412 1.807059-4.818824 2.409412-7.830588 13.251765 9.035294 26.503529 23.491765 31.322353 43.369412 6.625882 28.310588-4.216471 60.837647-41.562353 96.37647-25.298824 24.094118-62.644706 36.141176-98.785882 45.176471-14.456471 3.614118-30.117647 6.625882-44.574118 9.637647-3.614118 0.602353-7.228235 1.204706-10.24 1.807059-18.070588 3.614118-34.936471 7.228235-49.392941 11.444705-30.72 9.035294-46.983529 20.48-51.802353 35.538824-2.409412 7.830588-2.409412 18.672941 3.011765 34.334118s16.263529 35.538824 33.731764 60.235294c1.204706 1.204706 1.807059 2.409412 1.807059 4.21647C811.369412 889.072941 951.717647 716.8 951.717647 512c0-242.748235-196.969412-439.717647-439.717647-439.717647h-9.035294c-9.035294 40.357647-23.491765 68.065882-42.767059 86.136471-21.684706 20.48-47.585882 27.708235-72.884706 31.322352-10.842353 1.204706-21.684706 2.409412-32.527059 3.011765-1.807059 0-3.614118 0-4.818823 0.602353-12.047059 1.204706-24.094118 1.807059-35.538824 4.216471-22.287059 4.216471-42.767059 12.047059-60.235294 30.117647-31.322353 32.527059-36.141176 65.656471-30.117647 89.750588 4.216471 15.661176 12.047059 27.105882 21.082353 33.731765 11.444706-18.070588 29.515294-27.105882 45.176471-21.684706 2.409412 1.204706 4.818824 2.409412 6.625882 3.614117 18.070588-20.48 45.778824-37.345882 84.329412-37.948235 60.235294-1.204706 113.844706 26.503529 134.927059 48.790588 6.625882 6.625882 3.011765 30.117647-6.02353 59.030589l64.451765 22.287058c8.432941 3.011765 12.649412 12.649412 9.637647 21.082353s-12.649412 12.649412-21.082353 9.637647L500.555294 433.694118c-7.228235 18.672941-15.661176 37.948235-24.69647 55.41647l59.632941 22.889412c8.432941 3.011765 12.649412 12.649412 9.637647 21.082353s-12.649412 12.649412-21.082353 9.637647L458.992941 518.023529c-14.456471 22.889412-29.515294 37.948235-40.357647 35.538824-123.482353-27.708235-150.588235-84.931765-153.6-126.494118-3.011765 0-6.625882-0.602353-9.637647-1.807059-15.058824-5.421176-23.491765-24.094118-20.48-45.17647-18.672941-10.842353-33.731765-31.924706-39.755294-55.416471-9.035294-34.936471-0.602353-78.908235 37.345882-118.663529 23.491765-24.094118 49.995294-33.731765 76.498824-38.550588 13.251765-2.409412 25.901176-3.614118 38.550588-4.216471 1.807059 0 3.614118 0 5.421177-0.602353 10.842353-0.602353 20.48-1.807059 30.117647-3.011765 22.889412-2.409412 40.96-8.432941 56.018823-22.889411z m128.301177 488.508235c12.047059 19.877647 74.089412 49.995294 134.324705 48.188235 38.550588-0.602353 66.258824-16.865882 84.329412-37.948235 1.807059 1.807059 4.216471 3.011765 6.625883 3.614118 19.275294 6.625882 42.164706-9.035294 51.802353-35.538824 9.637647-26.503529 1.807059-53.609412-16.865883-60.235294-3.011765-1.204706-6.023529-1.807059-9.637647-1.807059-3.011765-41.562353-30.117647-98.785882-153.6-126.494118-35.538824 0.602353-109.025882 190.945882-96.978823 210.221177z" fill="#BFBFBF" opacity=".16" p-id="6844"></path><path d="M96.376471 871.002353m-48.188236 0a48.188235 48.188235 0 1 0 96.376471 0 48.188235 48.188235 0 1 0-96.376471 0Z" fill="#BFBFBF" opacity=".32" p-id="6845"></path><path d="M951.717647 265.035294m-30.117647 0a30.117647 30.117647 0 1 0 60.235294 0 30.117647 30.117647 0 1 0-60.235294 0Z" fill="#BFBFBF" opacity=".32" p-id="6846"></path><path d="M72.282353 289.129412m-24.094118 0a24.094118 24.094118 0 1 0 48.188236 0 24.094118 24.094118 0 1 0-48.188236 0Z" fill="#BFBFBF" opacity=".32" p-id="6847"></path><path d="M885.458824 192.752941m-18.070589 0a18.070588 18.070588 0 1 0 36.141177 0 18.070588 18.070588 0 1 0-36.141177 0Z" fill="#BFBFBF" opacity=".32" p-id="6848"></path><path d="M828.235294 543.924706c-3.011765-1.204706-6.023529-1.807059-9.637647-1.807059-3.011765-41.562353-30.117647-98.785882-153.6-126.494118-36.141176 0-109.628235 190.343529-97.581176 209.618824 12.047059 19.877647 74.089412 49.995294 134.324705 48.188235 38.550588-0.602353 66.258824-16.865882 84.329412-37.948235 1.807059 1.807059 4.216471 3.011765 6.625883 3.614118 19.275294 6.625882 42.164706-9.035294 51.802353-35.538824 10.24-25.901176 2.409412-53.007059-16.26353-59.632941zM658.974118 584.282353c-1.807059 6.625882-8.432941 10.24-14.456471 8.432941-6.625882-1.807059-10.24-8.432941-8.432941-14.45647 1.807059-6.625882 8.432941-10.24 14.45647-8.432942 6.023529 1.204706 10.24 7.830588 8.432942 14.456471z m30.117647-78.305882c-1.807059 6.625882-8.432941 10.24-14.456471 8.432941-6.625882-1.807059-10.24-8.432941-8.432941-14.456471 1.807059-6.625882 8.432941-10.24 14.456471-8.432941 6.023529 1.204706 10.24 7.830588 8.432941 14.456471z m46.381176 46.381176l-11.444706 27.708235c-1.204706 3.011765-4.818824 4.818824-7.830588 3.011765-3.011765-1.204706-4.818824-4.818824-3.011765-7.830588l11.444706-27.708235c1.204706-3.011765 4.818824-4.818824 7.830588-3.011765 3.011765 1.204706 4.818824 4.818824 3.011765 7.830588z" fill="#BFBFBF" fill-opacity=".56" p-id="6849"></path><path d="M621.628235 937.863529c-0.602353-1.204706-1.204706-3.011765-1.807059-4.21647-17.468235-24.696471-28.310588-43.971765-33.731764-60.235294-5.421176-15.661176-5.421176-26.503529-3.011765-34.334118 4.818824-15.058824 21.082353-25.901176 51.802353-35.538823 15.058824-4.216471 31.322353-7.830588 49.392941-11.444706 3.614118-0.602353 7.228235-1.204706 10.24-1.807059 14.456471-3.011765 29.515294-6.023529 44.574118-9.637647 36.141176-8.432941 73.487059-20.48 98.785882-45.176471 36.743529-35.538824 48.188235-68.668235 41.562353-96.37647-4.818824-19.877647-18.070588-34.334118-31.322353-43.369412-0.602353 2.409412-1.204706 4.818824-2.409412 7.830588-3.011765 7.830588-6.625882 14.456471-11.444705 19.877647 7.228235 6.023529 13.251765 13.854118 15.661176 23.491765 3.011765 13.251765 0 36.141176-33.129412 67.463529-18.672941 18.070588-48.790588 28.912941-84.329412 37.345883-13.854118 3.614118-28.912941 6.023529-43.369411 9.035294-3.614118 0.602353-7.228235 1.204706-10.842353 2.409411-18.070588 3.614118-36.141176 7.228235-52.404706 12.047059-31.322353 9.035294-62.644706 24.094118-72.282353 55.416471-4.818824 15.661176-3.011765 33.129412 3.614118 52.404706 6.023529 17.468235 16.865882 37.948235 33.129411 60.837647 10.842353-1.204706 21.082353-3.011765 31.322353-6.02353z" fill="#BFBFBF" fill-opacity=".4" p-id="6850"></path><path d="M516.818824 343.943529c-20.48-21.684706-74.089412-49.995294-134.927059-48.790588-38.550588 0.602353-66.258824 17.468235-84.329412 37.948235-1.807059-1.807059-4.216471-3.011765-6.625882-3.614117-19.275294-6.625882-42.164706 9.035294-51.802353 35.538823-9.637647 26.503529-1.807059 53.609412 16.865882 60.235294 3.011765 1.204706 6.023529 1.807059 9.637647 1.807059 3.011765 41.562353 30.72 98.785882 153.6 126.494118 10.842353 2.409412 25.298824-12.649412 40.357647-35.538824L524.047059 542.72c8.432941 3.011765 18.070588-1.204706 21.082353-9.637647s-1.204706-18.070588-9.637647-21.082353L475.858824 489.110588c9.035294-17.468235 17.468235-36.743529 24.69647-55.41647l63.849412 22.287058c8.432941 3.011765 18.070588-1.204706 21.082353-9.637647 3.011765-8.432941-1.204706-18.070588-9.637647-21.082353l-64.451765-22.287058c8.432941-28.912941 12.047059-52.404706 5.421177-59.030589z" fill="#BFBFBF" fill-opacity=".56" p-id="6851"></path><path d="M502.964706 72.282353c-10.842353 0-21.082353 0.602353-31.322353 1.807059-7.830588 31.924706-19.275294 50.597647-31.924706 62.644706-15.058824 14.456471-33.731765 20.48-56.018823 23.491764-9.637647 1.204706-19.877647 1.807059-30.117648 3.011765-1.807059 0-3.614118 0-5.421176 0.602353-12.047059 1.204706-25.298824 1.807059-38.550588 4.216471-26.503529 4.818824-53.007059 14.456471-76.498824 38.550588-38.550588 39.755294-46.381176 83.124706-37.345882 118.663529 6.023529 23.491765 21.082353 44.574118 39.755294 55.416471 0.602353-4.818824 1.807059-10.24 3.614118-15.661177 1.807059-4.818824 4.216471-9.637647 6.625882-13.854117-9.035294-6.625882-16.865882-18.070588-21.082353-33.731765-6.023529-24.094118-1.807059-57.223529 30.117647-89.750588 17.468235-18.070588 37.948235-25.901176 60.235294-30.117647 11.444706-1.807059 22.889412-3.011765 35.538824-4.216471 1.807059 0 3.614118 0 4.818823-0.602353 10.842353-0.602353 21.684706-1.807059 32.527059-3.011765 25.298824-3.614118 51.2-10.842353 72.884706-31.322352 18.672941-18.070588 33.129412-45.778824 42.164706-86.136471z" fill="#BFBFBF" fill-opacity=".4" p-id="6852"></path></svg>