<svg t="1642242562088" class="icon" viewBox="0 0 1024 1024" version="1.1" xmlns="http://www.w3.org/2000/svg" p-id="4675" width="200" height="200"><path d="M512 0C230.4 0 0 230.4 0 512s230.4 512 512 512 512-230.4 512-512S793.6 0 512 0z m213.333333 768c0 21.333333-17.066667 42.666667-42.666666 42.666667H341.333333c-21.333333 0-42.666667-17.066667-42.666666-42.666667V256c0-21.333333 17.066667-42.666667 42.666666-42.666667h341.333334c21.333333 0 42.666667 17.066667 42.666666 42.666667v512z" p-id="4676"></path><path d="M349.866667 622.933333h328.533333V264.533333H349.866667v358.4z m110.933333-328.533333h102.4c8.533333 0 17.066667 8.533333 17.066667 17.066667s-8.533333 17.066667-17.066667 17.066666h-102.4c-8.533333 0-17.066667-8.533333-17.066667-17.066666 0-12.8 8.533333-17.066667 17.066667-17.066667zM349.866667 759.466667h328.533333v-89.6H349.866667v89.6z m119.466666-59.733334h68.266667c8.533333 0 17.066667 8.533333 17.066667 17.066667s-8.533333 17.066667-17.066667 17.066667H469.333333c-8.533333 0-17.066667-8.533333-17.066666-17.066667s8.533333-17.066667 17.066666-17.066667z" p-id="4677"></path></svg>