<svg t="1642242389233" class="icon" viewBox="0 0 1024 1024" version="1.1" xmlns="http://www.w3.org/2000/svg" p-id="4286" width="200" height="200"><path d="M512 0C230.4 0 0 230.4 0 512s230.4 512 512 512 512-230.4 512-512S793.6 0 512 0z m226.133333 755.2L512 810.666667l-226.133333-55.466667L234.666667 256h554.666666l-51.2 499.2z" p-id="4287"></path><path d="M597.333333 541.866667l-8.533333 81.066666-76.8 17.066667-76.8-17.066667-4.266667-51.2H358.4l12.8 98.133334 140.8 34.133333 140.8-34.133333 21.333333-187.733334h-256l-4.266666-64h264.533333l8.533333-59.733333H337.066667l21.333333 183.466667z" p-id="4288"></path></svg>