<svg t="1642243097821" class="icon" viewBox="0 0 1024 1024" version="1.1" xmlns="http://www.w3.org/2000/svg" p-id="5066" width="200" height="200"><path d="M874.666667 149.333333C776.533333 55.466667 648.533333 0 512 0 409.6 0 311.466667 29.866667 226.133333 85.333333S76.8 221.866667 38.4 315.733333C0 409.6-8.533333 512 8.533333 610.133333c21.333333 98.133333 68.266667 192 140.8 260.266667 72.533333 72.533333 162.133333 119.466667 260.266667 140.8s200.533333 8.533333 294.4-29.866667c93.866667-38.4 174.933333-102.4 230.4-187.733333 55.466667-85.333333 85.333333-183.466667 85.333333-285.866667 4.266667-132.266667-51.2-260.266667-145.066666-358.4z m-341.333334 72.533334c25.6-29.866667 64-46.933333 98.133334-51.2 4.266667 38.4-8.533333 72.533333-29.866667 98.133333-21.333333 25.6-59.733333 51.2-98.133333 46.933333-8.533333-34.133333 8.533333-68.266667 29.866666-93.866666z m209.066667 473.6c-25.6 38.4-64 89.6-110.933333 89.6-21.333333 0-29.866667-4.266667-46.933334-12.8-17.066667-8.533333-34.133333-12.8-64-12.8s-46.933333 8.533333-64 12.8c-12.8 4.266667-25.6 12.8-46.933333 12.8-46.933333 0-81.066667-42.666667-110.933333-85.333334-76.8-110.933333-81.066667-238.933333-38.4-307.2C298.666667 341.333333 354.133333 315.733333 401.066667 315.733333c25.6 0 46.933333 8.533333 68.266666 12.8 17.066667 4.266667 34.133333 12.8 55.466667 12.8 17.066667 0 34.133333-4.266667 51.2-12.8 21.333333-8.533333 42.666667-17.066667 72.533333-17.066666 42.666667 0 89.6 21.333333 123.733334 64-106.666667 55.466667-89.6 204.8 17.066666 243.2-17.066667 34.133333-25.6 46.933333-46.933333 76.8z" p-id="5067"></path></svg>