<svg t="1664189884458" class="icon" viewBox="0 0 1024 1024" version="1.1" xmlns="http://www.w3.org/2000/svg" p-id="8904" width="200" height="200"><path d="M512 0C230.4 0 0 230.4 0 512s230.4 512 512 512 512-230.4 512-512S793.6 0 512 0z m217.6 712.533333h-38.4v12.8c0 21.333333-17.066667 38.4-38.4 38.4s-38.4-17.066667-38.4-38.4v-12.8H294.4c-21.333333 0-38.4-17.066667-38.4-38.4s17.066667-38.4 38.4-38.4h311.466667v-12.8c0-21.333333 17.066667-38.4 38.4-38.4s38.4 17.066667 38.4 38.4v12.8h38.4c21.333333 0 38.4 17.066667 38.4 38.4s-8.533333 38.4-29.866667 38.4z m0-162.133333H418.133333v12.8c0 21.333333-17.066667 38.4-38.4 38.4s-38.4-17.066667-38.4-38.4v-12.8H294.4c-21.333333 0-38.4-17.066667-38.4-38.4s17.066667-38.4 38.4-38.4h38.4v-12.8c0-21.333333 17.066667-38.4 38.4-38.4s38.4 17.066667 38.4 38.4v12.8h311.466667c21.333333 0 38.4 17.066667 38.4 38.4s-8.533333 38.4-29.866667 38.4z m0-157.866667h-38.4v12.8c0 21.333333-17.066667 38.4-38.4 38.4s-38.4-17.066667-38.4-38.4v-12.8H294.4c-21.333333 0-38.4-21.333333-38.4-42.666666s17.066667-38.4 38.4-38.4h311.466667v-17.066667c0-21.333333 17.066667-38.4 38.4-38.4s38.4 17.066667 38.4 38.4v12.8h38.4c21.333333 0 38.4 17.066667 38.4 38.4 8.533333 25.6-8.533333 46.933333-29.866667 46.933333z" p-id="8905"></path></svg>