<svg t="1642414414599" class="icon" viewBox="0 0 1024 1024" version="1.1" xmlns="http://www.w3.org/2000/svg" p-id="3898" width="200" height="200"><path d="M512 347.989333c-92.16 0-167.082667 73.258667-167.082667 164.010667S419.882667 675.968 512 675.968c92.16 0 167.125333-73.258667 167.125333-163.968 0-90.752-74.965333-164.010667-167.125333-164.010667zM422.784 512c0-48.085333 39.765333-87.296 89.173333-87.296 49.493333 0 89.258667 39.253333 89.258667 87.296s-39.808 87.296-89.216 87.296c-49.450667 0-89.216-39.253333-89.216-87.296z" p-id="3899"></path><path d="M512.085333 183.466667c-172.202667 0-325.973333 119.893333-410.752 313.344-4.266667 9.685333-4.266667 20.693333 0 30.378666l5.845334 12.970667v0.085333c83.754667 181.077333 229.205333 294.741333 392.874666 300.074667l11.733334 0.213333h0.128c172.202667 0 325.973333-119.893333 410.752-313.344 4.309333-9.813333 4.266667-20.949333-0.128-30.72l-5.674667-12.544v-0.085333c-83.925333-181.418667-229.461333-294.826667-392.917333-300.16l-11.733334-0.213333h-0.128zM179.754667 512l4.565333-9.642667c75.434667-153.685333 197.76-242.176 327.978667-242.261333l9.429333 0.213333 10.666667 0.554667c124.544 8.746667 240.64 99.413333 311.893333 251.178667-73.045333 155.477333-193.28 246.997333-322.005333 251.605333l-10.112 0.170667-10.154667-0.128-10.538667-0.554667c-121.6-8.533333-235.093333-95.402667-306.645333-240.469333L179.754667 512z" p-id="3900"></path></svg>