<svg t="1642414464560" class="icon" viewBox="0 0 1024 1024" version="1.1" xmlns="http://www.w3.org/2000/svg" p-id="4026" width="200" height="200"><path d="M257.92 166.826667a51.2 51.2 0 0 0-51.2 51.2v546.133333a51.2 51.2 0 0 0 51.2 51.2h512a51.2 51.2 0 0 0 51.2-51.2V348.714667a51.2 51.2 0 0 0-17.152-38.272L657.066667 179.797333a51.2 51.2 0 0 0-11.946667-7.936 34.005333 34.005333 0 0 0-17.792-4.992H257.92z m17.066667 580.266666v-512h72.661333v85.333334a34.133333 34.133333 0 0 0 34.133333 34.133333h245.546667a34.133333 34.133333 0 0 0 34.133333-34.133333V275.072l91.392 81.28v390.826667h-91.392v-213.333334a34.133333 34.133333 0 0 0-34.133333-34.133333H381.781333a34.133333 34.133333 0 0 0-34.133333 34.133333v213.333334H274.986667z m140.928-460.8v-51.2h177.28v51.2H415.914667z m0 460.8v-179.2h177.28v179.2H415.914667z" p-id="4027"></path></svg>