<svg t="1644646552789" class="icon" viewBox="0 0 1024 1024" version="1.1" xmlns="http://www.w3.org/2000/svg" p-id="4510" width="200" height="200"><path d="M307.2 371.2c0 55.466667 21.333333 106.666667 59.733333 145.066667 38.4 38.4 89.6 59.733333 145.066667 59.733333 55.466667 0 106.666667-21.333333 145.066667-59.733333 38.4-38.4 59.733333-89.6 59.733333-145.066667 0-25.6-4.266667-51.2-17.066667-76.8-8.533333-25.6-25.6-46.933333-42.666666-64-17.066667-17.066667-42.666667-34.133333-68.266667-42.666667-21.333333-12.8-51.2-17.066667-76.8-17.066666-25.6 0-55.466667 4.266667-76.8 17.066666-25.6 8.533333-46.933333 25.6-68.266667 42.666667-17.066667 17.066667-34.133333 42.666667-42.666666 64s-17.066667 51.2-17.066667 76.8zM691.2 627.2H332.8c-89.6 0-162.133333 72.533333-162.133333 162.133333v17.066667c0 25.6 21.333333 46.933333 46.933333 46.933333h584.533333c25.6 0 46.933333-21.333333 46.933334-46.933333v-17.066667c4.266667-89.6-68.266667-162.133333-157.866667-162.133333z" p-id="4511"></path></svg>