<svg t="1642242449893" class="icon" viewBox="0 0 1024 1024" version="1.1" xmlns="http://www.w3.org/2000/svg" p-id="4414" width="200" height="200"><path d="M512 0C230.4 0 0 230.4 0 512s230.4 512 512 512 512-230.4 512-512S793.6 0 512 0zM413.866667 196.266667c93.866667-38.4 196.266667-4.266667 256 72.533333 4.266667 8.533333-4.266667 17.066667-12.8 12.8-55.466667-21.333333-119.466667-25.6-174.933334 0-102.4 42.666667-162.133333 145.066667-149.333333 251.733333 0 8.533333-8.533333 12.8-12.8 8.533334-12.8-17.066667-21.333333-34.133333-29.866667-51.2-46.933333-119.466667 8.533333-247.466667 123.733334-294.4zM264.533333 755.2C170.666667 682.666667 145.066667 554.666667 200.533333 456.533333c0-4.266667 8.533333 0 8.533334 0 4.266667 72.533333 38.4 140.8 98.133333 187.733334 17.066667 12.8 29.866667 21.333333 46.933333 29.866666-12.8 12.8-29.866667 25.6-46.933333 34.133334-4.266667 0 0 8.533333 0 8.533333 34.133333 0 68.266667-8.533333 98.133333-25.6 81.066667 17.066667 166.4-4.266667 230.4-59.733333 4.266667-4.266667 8.533333 0 4.266667 4.266666-8.533333 25.6-21.333333 51.2-42.666667 76.8-76.8 106.666667-230.4 128-332.8 42.666667zM840.533333 597.333333c-8.533333 110.933333-93.866667 200.533333-196.266666 217.6-8.533333 0-12.8-8.533333-4.266667-17.066666 51.2-42.666667 81.066667-106.666667 89.6-174.933334 8.533333-123.733333-64-230.4-174.933333-268.8-8.533333-4.266667-8.533333-12.8 0-17.066666 21.333333-4.266667 46.933333-4.266667 68.266666-4.266667 132.266667 12.8 230.4 132.266667 217.6 264.533333z" p-id="4415"></path></svg>