<svg t="1642242372499" class="icon" viewBox="0 0 1024 1024" version="1.1" xmlns="http://www.w3.org/2000/svg" p-id="4159" width="200" height="200"><path d="M512 0C230.4 0 0 230.4 0 512s230.4 512 512 512 512-230.4 512-512S793.6 0 512 0z m302.933333 469.333333c-21.333333 38.4-59.733333 64-106.666666 81.066667h-4.266667c-8.533333 0-12.8 4.266667-21.333333 4.266667-29.866667 0-46.933333-21.333333-38.4-46.933334 8.533333-17.066667 25.6-34.133333 46.933333-42.666666 34.133333-12.8 59.733333-42.666667 59.733333-76.8 0-46.933333-42.666667-81.066667-98.133333-81.066667C597.333333 307.2 554.666667 341.333333 554.666667 388.266667V640c0 59.733333-34.133333 110.933333-85.333334 140.8-29.866667 17.066667-59.733333 25.6-98.133333 25.6-102.4 0-183.466667-76.8-183.466667-166.4 0-29.866667 8.533333-55.466667 21.333334-81.066667 21.333333-38.4 59.733333-64 106.666666-81.066666 8.533333-4.266667 17.066667-4.266667 21.333334-4.266667 29.866667 0 51.2 21.333333 38.4 46.933333-8.533333 17.066667-25.6 34.133333-42.666667 42.666667-4.266667 0-4.266667 0-8.533333 4.266667-34.133333 12.8-55.466667 42.666667-55.466667 72.533333 0 46.933333 42.666667 81.066667 98.133333 81.066667s102.4-38.4 102.4-85.333334V388.266667c0-59.733333 34.133333-110.933333 85.333334-140.8 29.866667-17.066667 59.733333-25.6 98.133333-25.6 102.4 0 183.466667 76.8 183.466667 166.4 0 29.866667-8.533333 55.466667-21.333334 81.066666z" p-id="4160"></path></svg>